<svg xmlns="http://www.w3.org/2000/svg" viewBox="0 0 170.38 226.56"><defs><style>.cls-1{fill:#3c2514;}.cls-2{fill:#7d5932;}.cls-3{fill:#62c13a;}.cls-4{fill:#56ad2d;}</style></defs><g id="Layer_2" data-name="Layer 2"><g id="Layer_1-2" data-name="Layer 1"><rect class="cls-1" x="89.47" y="84.48" width="4.22" height="142.08"/><rect class="cls-2" x="72.58" y="84.48" width="16.9" height="142.08"/><circle class="cls-3" cx="76.99" cy="55.87" r="55.87"/><path class="cls-4" d="M77.06,0A55.74,55.74,0,0,0,56.45,3.93a55.83,55.83,0,0,1,4.39,105.29A55.81,55.81,0,1,0,77.06,0Z"/><circle class="cls-3" cx="127.87" cy="90.62" r="41.47"/><rect class="cls-1" x="103.39" y="91.31" width="1.69" height="50.18" transform="translate(84.05 -38.54) rotate(34.42)"/><rect class="cls-2" x="98.07" y="89.14" width="5.99" height="50.18" transform="translate(82.27 -37.13) rotate(34.42)"/><circle class="cls-3" cx="38.98" cy="114.24" r="38.98"/><path class="cls-4" d="M129,48.38a41,41,0,0,0-15.3,2.95,42,42,0,0,1,3.26,79,40.94,40.94,0,0,0,12,1.8,41.86,41.86,0,0,0,0-83.72Z"/><circle class="cls-3" cx="81.02" cy="90.24" r="21.5"/><path class="cls-4" d="M38.81,75.67a40.1,40.1,0,0,0-14.6,2.73,38.54,38.54,0,0,1,3.11,73.15,40.31,40.31,0,0,0,11.49,1.67c21.84,0,39.55-17.36,39.55-38.77S60.65,75.67,38.81,75.67Z"/><rect class="cls-2" x="59.27" y="120.25" width="5.69" height="57.98" transform="translate(-72 59) rotate(-33.47)"/><rect class="cls-1" x="64.36" y="118.24" width="1.61" height="57.98" transform="translate(-70.39 60.34) rotate(-33.47)"/><rect class="cls-2" x="72.58" y="149.17" width="10.75" height="38.82"/></g></g></svg>