<svg id="Layer_1" data-name="Layer 1" xmlns="http://www.w3.org/2000/svg" viewBox="0 0 26.68 103.99"><defs><style>.cls-1{fill:#fff;}.cls-1,.cls-2{stroke:#222b2b;stroke-miterlimit:10;}.cls-2{fill:none;}.cls-3{fill:#bc2f2f;}</style></defs><path class="cls-1" d="M288.08,239.65V165.23a4.38,4.38,0,0,0-4.37-4.38h-3.54a4.37,4.37,0,0,0-4.37,4.38v74.58a12.84,12.84,0,1,0,12.28-.16Z" transform="translate(-268.74 -160.35)"/><line class="cls-2" x1="7.06" y1="24.19" x2="12.56" y2="24.19"/><line class="cls-2" x1="7.06" y1="28.92" x2="14.53" y2="28.92"/><line class="cls-2" x1="6.67" y1="33.85" x2="12.17" y2="33.85"/><line class="cls-2" x1="6.87" y1="38.58" x2="12.36" y2="38.58"/><line class="cls-2" x1="6.87" y1="43.31" x2="14.33" y2="43.31"/><line class="cls-2" x1="7.47" y1="48.24" x2="12.97" y2="48.24"/><line class="cls-2" x1="7.26" y1="53.36" x2="12.76" y2="53.36"/><line class="cls-2" x1="7.26" y1="58.09" x2="14.72" y2="58.09"/><line class="cls-2" x1="6.87" y1="63.02" x2="12.36" y2="63.02"/><line class="cls-2" x1="7.26" y1="68.46" x2="12.76" y2="68.46"/><ellipse class="cls-3" cx="13.33" cy="90.64" rx="12.34" ry="12.39"/><rect class="cls-3" x="7.54" y="73.28" width="11.27" height="7.34"/></svg>