<?xml version="1.0" encoding="utf-8"?>
<!-- Generator: Adobe Illustrator 25.4.1, SVG Export Plug-In . SVG Version: 6.00 Build 0)  -->
<svg version="1.1" id="Layer_1" xmlns="http://www.w3.org/2000/svg" xmlns:xlink="http://www.w3.org/1999/xlink" x="0px" y="0px"
	 viewBox="0 0 178.9 202.6" style="enable-background:new 0 0 178.9 202.6;" xml:space="preserve">
<style type="text/css">
	.st0{fill:#7D5932;}
	.st1{fill:#3C2514;}
	.st2{fill:#79A565;}
	.st3{fill:#61894C;}
	.st4{fill:#D1E9F2;}
</style>
<rect x="77.2" y="169" class="st0" width="19" height="32"/>
<rect x="96.2" y="169" class="st1" width="4" height="32"/>
<polygon class="st2" points="124.1,63.7 124.2,63.4 88.5,6.1 52.8,63.4 52.9,63.7 "/>
<polygon class="st2" points="143.5,114.7 143.8,114.3 88.3,25.4 32.9,114.3 33.1,114.7 "/>
<polygon class="st2" points="166.5,169.7 166.9,169.1 88.5,43.5 10.2,169.1 10.5,169.7 "/>
<polygon class="st3" points="88.8,6.7 88.8,63.7 123.9,63.7 124.1,63.4 "/>
<polygon class="st3" points="88.8,26 88.8,114.7 143.6,114.7 143.8,114.3 "/>
<polygon class="st3" points="88.8,44.1 88.8,169.7 166.4,169.7 166.8,169.1 "/>
<path class="st4" d="M71.8,52.5c4.6,0,9.2-0.8,13.8-0.8c4,0.1,8,0.6,11.9,1.6c2.2,0.5,4.6,1.2,7.1,1.8c0.7-0.2,1.5-0.3,2.2-0.5
	c3.2-0.7,6.3-2,9.1-3.8c0.9-0.6,1.6-1.4,2.3-2.3L88.2,0.6L58.4,48.3C62.4,50.9,67,52.3,71.8,52.5z"/>
<path class="st4" d="M133.2,95.9c-0.4,0-0.7,0-1.1,0c-0.6,0.7-1.4,1.1-2.2,1.4c-7.1,2.3-12.8,6.7-20.6,4.4c-3.7-1.1-6.3-2-10.2-1.5
	c-3.8,0.5-7.4,1.2-11.2,0.5s-6.8-2.4-10.4-3.4c-3.9-1.1-6.8,0.2-10.6,1.2c-3.4,1.1-7.1,1.2-10.6,0.5c-3.8-0.9-7.1-3.8-11.1-4.1
	c-0.2,0-0.5-0.1-0.7-0.1l-14,22.9l0.3,0.4h2.9c6.2-3.8,13.2-6.2,20.2-4c3.3,1,6.3,2.9,9.6,4H72c4.8-1.4,9.3-3.6,14.5-3.6
	c5.5,0,10.2,2.7,15.5,3.3c0.4,0,0.8,0.1,1.2,0.1c1-0.8,2.2-1.3,3.4-1.5c0.6-0.1,1.3-0.1,1.9-0.1c1.7-0.5,3.4-0.6,5.1-0.2
	c1.3-0.3,2.5-0.4,3.8-0.4c2.2,0,4.5,0.3,6.6,0.9c2.9-0.3,5.9,0.1,8.6,1c1.7,0.1,3.3,0.3,4.9,0.6h7.6c0.4-0.2,0.8-0.4,1.2-0.6
	L133.2,95.9z"/>
<path class="st4" d="M145.6,116.2c-0.6-0.3-1.1-0.7-1.7-1.1l0.3,0.2c-0.8-0.6-1.6-1.4-2.2-2.2c-0.3-0.3-0.7-0.4-1.1-0.4
	c-0.4,0-0.8,0.2-1.1,0.4c-0.3,0.3-0.4,0.7-0.4,1.1c0,0.4,0.2,0.8,0.4,1.1c1.2,1.4,2.6,2.6,4.2,3.5c0.7,0.4,1.6,0.2,2.1-0.5
	C146.6,117.6,146.3,116.7,145.6,116.2C145.6,116.2,145.6,116.2,145.6,116.2L145.6,116.2z"/>
<path class="st4" d="M153.3,144.7c-0.5,0-1.1,0-1.6,0c-0.9,0.9-2,1.6-3.2,2c-10.3,3.3-18.7,9.7-30,6.4c-5.4-1.6-9.2-2.9-14.9-2.2
	c-5.5,0.7-10.8,1.7-16.3,0.8c-5.3-0.9-10-3.5-15.2-5c-5.7-1.7-9.9,0.3-15.5,1.8c-5.1,1.4-10.3,2-15.4,0.7c-5.6-1.4-10.3-5.6-16.1-6
	c-0.4,0-0.7-0.1-1.1-0.1L3.6,176.4l0.4,0.6h4.3c9-5.5,19.2-9,29.5-5.8c4.8,1.5,9.2,4.3,13.9,5.8H64c7-2,13.5-5.2,21.1-5.2
	c8,0,14.8,3.9,22.6,4.8c0.6,0.1,1.2,0.1,1.8,0.1c1.4-1.1,3.1-1.9,4.9-2.2c0.9-0.2,1.9-0.2,2.8-0.1c2.4-0.7,5-0.8,7.5-0.4
	c1.8-0.4,3.7-0.6,5.5-0.6c3.3,0,6.5,0.4,9.6,1.3c4.3-0.4,8.6,0.1,12.6,1.5c2.4,0.2,4.8,0.5,7.2,0.9h11.1c0.6-0.3,1.2-0.6,1.8-0.8
	L153.3,144.7z"/>
</svg>
