<?xml version="1.0" encoding="utf-8"?>
<!-- Generator: Adobe Illustrator 25.4.1, SVG Export Plug-In . SVG Version: 6.00 Build 0)  -->
<svg version="1.1" id="Layer_1" xmlns="http://www.w3.org/2000/svg" xmlns:xlink="http://www.w3.org/1999/xlink" x="0px" y="0px"
	 viewBox="0 0 165 202.6" style="enable-background:new 0 0 165 202.6;" xml:space="preserve">
<style type="text/css">
	.st0{fill:#7D5932;}
	.st1{fill:#3C2514;}
	.st2{fill:#79A565;}
	.st3{fill:#61894C;}
</style>
<rect x="69.2" y="165.3" class="st0" width="19" height="32"/>
<rect x="88.2" y="165.3" class="st1" width="4" height="32"/>
<polygon class="st2" points="116,60 116.2,59.7 80.5,2.4 44.7,59.7 44.9,60 "/>
<polygon class="st2" points="135.5,111 135.7,110.5 80.3,21.7 24.9,110.5 25.1,111 "/>
<polygon class="st2" points="158.5,166 158.9,165.4 80.5,39.8 2.1,165.4 2.5,166 "/>
<polygon class="st3" points="80.7,3 80.7,60 115.9,60 116.1,59.7 "/>
<polygon class="st3" points="80.7,22.3 80.7,111 135.5,111 135.8,110.5 "/>
<polygon class="st3" points="80.7,40.4 80.7,166 158.4,166 158.7,165.4 "/>
</svg>
