<?xml version="1.0" encoding="utf-8"?>
<!-- Generator: Adobe Illustrator 25.4.1, SVG Export Plug-In . SVG Version: 6.00 Build 0)  -->
<svg version="1.1" id="Layer_1" xmlns="http://www.w3.org/2000/svg" xmlns:xlink="http://www.w3.org/1999/xlink" x="0px" y="0px"
	 viewBox="0 0 165 202.6" style="enable-background:new 0 0 165 202.6;" xml:space="preserve">
<style type="text/css">
	.st0{fill:#7D5932;}
	.st1{fill:#3C2514;}
	.st2{fill:#62C13A;}
	.st3{fill:#509E26;}
</style>
<rect x="69.5" y="166.5" class="st0" width="19" height="32"/>
<rect x="88.5" y="166.5" class="st1" width="4" height="32"/>
<polygon class="st2" points="116.3,61.2 116.5,61 80.8,3.7 45.1,61 45.2,61.2 "/>
<polygon class="st2" points="135.8,112.2 136.1,111.8 80.6,22.9 25.2,111.8 25.4,112.2 "/>
<polygon class="st2" points="158.8,167.2 159.2,166.6 80.8,41 2.5,166.6 2.8,167.2 "/>
<polygon class="st3" points="81.1,4.3 81.1,61.2 116.2,61.2 116.4,61 "/>
<polygon class="st3" points="81.1,23.5 81.1,112.2 135.9,112.2 136.1,111.8 "/>
<polygon class="st3" points="81.1,41.6 81.1,167.2 158.7,167.2 159,166.6 "/>
</svg>
