<?xml version="1.0" encoding="utf-8"?>
<!-- Generator: Adobe Illustrator 25.4.1, SVG Export Plug-In . SVG Version: 6.00 Build 0)  -->
<svg version="1.1" id="Layer_1" xmlns="http://www.w3.org/2000/svg" xmlns:xlink="http://www.w3.org/1999/xlink" x="0px" y="0px"
	 viewBox="0 0 178.9 202.6" style="enable-background:new 0 0 178.9 202.6;" xml:space="preserve">
<style type="text/css">
	.st0{fill:#7D5932;}
	.st1{fill:#3C2514;}
	.st2{fill:#D1E9F2;}
	.st3{fill:#9FC1C9;}
</style>
<rect x="77.4" y="165.6" class="st0" width="19" height="32"/>
<rect x="96.4" y="165.6" class="st1" width="4" height="32"/>
<polygon class="st2" points="124.2,60.3 124.4,60 88.7,2.7 52.9,60 53.1,60.3 "/>
<polygon class="st2" points="143.7,111.3 143.9,110.9 88.5,22 33.1,110.9 33.3,111.3 "/>
<polygon class="st2" points="166.7,166.3 167.1,165.7 88.7,40.1 10.4,165.7 10.7,166.3 "/>
<polygon class="st3" points="88.9,3.3 88.9,60.3 124.1,60.3 124.3,60 "/>
<polygon class="st3" points="88.9,22.6 88.9,111.3 143.8,111.3 144,110.9 "/>
<polygon class="st3" points="88.9,40.7 88.9,166.3 166.6,166.3 166.9,165.7 "/>
</svg>
