<svg id="Layer_1" data-name="Layer 1" xmlns="http://www.w3.org/2000/svg" viewBox="0 0 253.89 181.02"><defs><style>.cls-1{fill:#82c3f9;}.cls-2{fill:#f15a24;}.cls-3{fill:#ffa05f;}.cls-4{fill:#d8834a;}.cls-5{fill:#45a2ff;}.cls-6{fill:#fff;}</style></defs><path class="cls-1" d="M203.82,52.81l-17.27,47.73-18.06,75.33-16.73-52.53a64.77,64.77,0,0,1-2.44-24.7l5.46-40c.26-1.85,3.52-3.65,7.73-4.25L195,49.77C200.18,49,204.48,50.53,203.82,52.81Z" transform="translate(-21.16 -10.61)"/><polygon class="cls-2" points="238.53 23.5 253.89 27.51 238.78 32.35 238.53 23.5"/><ellipse class="cls-3" cx="181.09" cy="77.89" rx="69.12" ry="44.53" transform="translate(-32.01 22.36) rotate(-10.1)"/><polygon class="cls-4" points="127.3 31.24 135.11 63.48 0 79.12 127.3 31.24"/><path class="cls-5" d="M221.83,14.54c11.68,30.46-3.23,64.5-33.29,76S124.63,86.73,113,56.27C112.25,54.42,221.08,12.57,221.83,14.54Z" transform="translate(-21.16 -10.61)"/><ellipse class="cls-1" cx="226.58" cy="43.29" rx="32.64" ry="34.92" transform="translate(133.88 251.98) rotate(-82.75)"/><circle class="cls-6" cx="213.98" cy="26.05" r="6.74"/><circle cx="213.97" cy="26.08" r="3.99"/><path class="cls-5" d="M190.61,74.48l-51.2,43.07L67.56,191.62l21.58-71a100.69,100.69,0,0,1,15.43-29.81l34.13-42c1.58-2,6.05-1.84,10.58.25l35,16.2C189.78,67.76,192.89,72.3,190.61,74.48Z" transform="translate(-21.16 -10.61)"/></svg>