<svg id="Layer_1" data-name="Layer 1" xmlns="http://www.w3.org/2000/svg" viewBox="0 0 139.6 185.93"><defs><style>.cls-1{fill:#3c2514;}.cls-2{fill:#7d5932;}.cls-3{fill:#83af71;}.cls-4{fill:#7ba065;}.cls-5{fill:#71995c;}.cls-6{fill:#ffd2f7;}.cls-7{fill:#d363c3;}</style></defs><g id="Layer_2" data-name="Layer 2"><g id="Layer_1-2" data-name="Layer 1-2"><rect class="cls-1" x="73.42" y="69.33" width="3.46" height="116.6"/><rect class="cls-2" x="59.56" y="69.33" width="13.87" height="116.6"/><circle class="cls-3" cx="63.18" cy="45.85" r="45.85"/><path class="cls-4" d="M78.24,8.12a45.54,45.54,0,0,0-16.91,3.22,45.82,45.82,0,0,1,3.6,86.41A45.8,45.8,0,1,0,78.24,8.12Z" transform="translate(-15.01 -8.12)"/><circle class="cls-3" cx="104.93" cy="74.37" r="34.03"/><rect class="cls-1" x="79.96" y="102.95" width="41.18" height="1.39" transform="translate(-56.79 119.88) rotate(-55.58)"/><rect class="cls-2" x="77.36" y="99.4" width="41.18" height="4.92" transform="translate(-56.45 116.96) rotate(-55.58)"/><circle class="cls-3" cx="31.99" cy="93.75" r="31.99"/><path class="cls-5" d="M120.87,47.82a33.73,33.73,0,0,0-12.56,2.42A34.48,34.48,0,0,1,111,115.07a33.54,33.54,0,0,0,9.85,1.48,34.36,34.36,0,0,0,0-68.71Z" transform="translate(-15.01 -8.12)"/><circle class="cls-3" cx="66.49" cy="74.06" r="17.64"/><path class="cls-5" d="M46.86,70.21a33.22,33.22,0,0,0-12,2.24,31.63,31.63,0,0,1,2.56,60,33.06,33.06,0,0,0,9.43,1.38c17.92,0,32.45-14.25,32.45-31.82S64.78,70.21,46.86,70.21Z" transform="translate(-15.01 -8.12)"/><rect class="cls-2" x="63.64" y="106.81" width="4.67" height="47.58" transform="translate(-76.09 49.93) rotate(-33.47)"/><rect class="cls-1" x="67.42" y="104.83" width="1.32" height="47.38" transform="translate(-74.67 50.88) rotate(-33.53)"/><rect class="cls-2" x="59.56" y="122.42" width="8.82" height="31.86"/></g></g><circle class="cls-6" cx="38.75" cy="31.93" r="2.1"/><circle class="cls-6" cx="37.35" cy="33.99" r="2.1"/><circle class="cls-6" cx="39.75" cy="35.22" r="2.1"/><circle class="cls-6" cx="41.43" cy="33.12" r="2.1"/><circle class="cls-7" cx="39.24" cy="33.58" r="0.99"/><circle class="cls-6" cx="64.97" cy="54.14" r="2.1"/><circle class="cls-6" cx="63.57" cy="56.21" r="2.1"/><circle class="cls-6" cx="65.97" cy="57.43" r="2.1"/><circle class="cls-6" cx="67.65" cy="55.33" r="2.1"/><circle class="cls-7" cx="65.46" cy="55.8" r="0.99"/><circle class="cls-6" cx="71.48" cy="11.47" r="2.1"/><circle class="cls-6" cx="70.07" cy="13.54" r="2.1"/><circle class="cls-6" cx="72.47" cy="14.76" r="2.1"/><circle class="cls-6" cx="74.16" cy="12.66" r="2.1"/><circle class="cls-7" cx="71.97" cy="13.13" r="0.99"/><circle class="cls-6" cx="15.51" cy="80.2" r="2.1"/><circle class="cls-6" cx="14.11" cy="82.27" r="2.1"/><circle class="cls-6" cx="16.51" cy="83.5" r="2.1"/><circle class="cls-6" cx="18.19" cy="81.39" r="2.1"/><circle class="cls-7" cx="16" cy="81.86" r="0.99"/><circle class="cls-6" cx="99.51" cy="55.16" r="2.1"/><circle class="cls-6" cx="98.11" cy="57.23" r="2.1"/><circle class="cls-6" cx="100.51" cy="58.46" r="2.1"/><circle class="cls-6" cx="102.19" cy="56.35" r="2.1"/><circle class="cls-7" cx="100" cy="56.82" r="0.99"/></svg>