<svg id="Layer_1" data-name="Layer 1" xmlns="http://www.w3.org/2000/svg" viewBox="0 0 268.8 158.07"><defs><style>.cls-1{fill:#82c3f9;}.cls-2{fill:#f15a24;}.cls-3{fill:#ffa05f;}.cls-4{fill:#d8834a;}.cls-5{fill:#45a2ff;}.cls-6{fill:#fff;}</style></defs><path class="cls-1" d="M171.4,115.23,149.26,72.07,108.39,10l47.36,24a65.35,65.35,0,0,1,18.78,14.87l24.34,30.24c1.13,1.4.28,4.74-2,7.9l-17.7,24.46C176.37,115.35,172.57,117.18,171.4,115.23Z" transform="translate(-15.96 -9.99)"/><polygon class="cls-2" points="253.43 68.8 268.8 72.8 253.69 77.64 253.43 68.8"/><ellipse class="cls-3" cx="190.8" cy="122.56" rx="69.12" ry="44.53" transform="translate(-34.5 25.38) rotate(-10.1)"/><polygon class="cls-4" points="142.21 76.53 150.02 108.77 14.91 124.41 142.21 76.53"/><path class="cls-5" d="M231.55,59.21c11.67,30.46-3.24,64.5-33.3,76s-63.9-3.83-75.58-34.29C122,99.1,230.79,57.24,231.55,59.21Z" transform="translate(-15.96 -9.99)"/><ellipse class="cls-1" cx="236.29" cy="87.96" rx="32.64" ry="34.92" transform="translate(103.25 301.27) rotate(-82.75)"/><circle class="cls-6" cx="228.89" cy="71.34" r="6.74"/><circle cx="228.88" cy="71.37" r="3.99"/><path class="cls-5" d="M161.47,124.22l-55.15-34L16,44.32l73.52,6.93a128,128,0,0,1,32.62,7.91L171.54,80c2.29,1,3.43,4.49,2.69,8.32l-5.7,29.65C167.63,122.63,164.17,125.7,161.47,124.22Z" transform="translate(-15.96 -9.99)"/></svg>