<svg id="Layer_1" data-name="Layer 1" xmlns="http://www.w3.org/2000/svg" viewBox="0 0 211.95 102.39"><defs><style>.cls-1{fill:none;stroke:#1d71b8;stroke-miterlimit:10;stroke-width:3px;}</style></defs><path class="cls-1" d="M85.89,196.74l53.33-33.33L174,196.74l37.77-40,38.52,40,37.78-50.37" transform="translate(-77.36 -125.87)"/><path class="cls-1" d="M78.38,156.33C90.72,167.78,107.86,183,107.86,183" transform="translate(-77.36 -125.87)"/><path class="cls-1" d="M114.85,228.15c-.66-9.21,0-49.51,0-49.51" transform="translate(-77.36 -125.87)"/><path class="cls-1" d="M157.35,136c0,18.86-2.61,42.25-2.61,42.25" transform="translate(-77.36 -125.87)"/><path class="cls-1" d="M164.73,225c.05.42-3.11-39.78-3.17-40.22" transform="translate(-77.36 -125.87)"/><path class="cls-1" d="M204.41,214.4C192,198.4,192,177.73,192,177.73" transform="translate(-77.36 -125.87)"/><path class="cls-1" d="M181.61,141.08c-.39,25.2,16.19,30.49,16.19,30.49" transform="translate(-77.36 -125.87)"/><path class="cls-1" d="M227.2,126.12c1.82,21.2,10.14,57.13,10.14,57.13l-17.86,33.81" transform="translate(-77.36 -125.87)"/><path class="cls-1" d="M264.91,176.18c-2.36,8.08-1.22,13.23.24,16.42,2.07,4.56.31,4.25,1.89,9.06,1.9,5.74,3.53,8.82,4.78,15,.56,2.76-1.08-4.38,0,0" transform="translate(-77.36 -125.87)"/><path class="cls-1" d="M261.45,126.12c4.27,25.25,7.73,45.49,7.73,45.49" transform="translate(-77.36 -125.87)"/></svg>
