<?xml version="1.0" encoding="utf-8"?>
<!-- Generator: Adobe Illustrator 25.4.1, SVG Export Plug-In . SVG Version: 6.00 Build 0)  -->
<svg version="1.1" id="Layer_1" xmlns="http://www.w3.org/2000/svg" xmlns:xlink="http://www.w3.org/1999/xlink" x="0px" y="0px"
	 viewBox="0 0 685.6 903.1" style="enable-background:new 0 0 685.6 903.1;" xml:space="preserve">
<style type="text/css">
	.st0{fill:#FFFFFF;}
	.st1{fill:#FFFFFF;stroke:#F2F2F2;stroke-width:7;stroke-miterlimit:10;}
	.st2{fill:none;stroke:#522D11;stroke-width:10;stroke-miterlimit:10;}
	.st3{fill:none;stroke:#61330F;stroke-width:10;stroke-miterlimit:10;}
	.st4{fill:#606060;}
	.st5{fill:none;stroke:#000000;stroke-miterlimit:10;}
	.st6{fill:#F299A7;}
	.st7{fill:#ACD295;}
	.st8{fill:#F39FB0;}
	.st9{fill:#F4A9B6;}
	.st10{fill:none;stroke:#666666;stroke-width:7;stroke-miterlimit:10;}
	.st11{fill:#FBC371;}
	.st12{fill:none;stroke:#FBB03B;stroke-miterlimit:10;}
	.st13{fill:none;stroke:#666666;stroke-width:4;stroke-miterlimit:10;}
</style>
<path class="st0" d="M539.9,542.3c0,41.1,104.4,172.5,134.9,259.3c12.7,36.2-77.1,68.8-88.2,78.6c-27.6,24.5-62.2-23.2-135.3-31.1
	c-31.7-3.4-98.3,4.5-116.5,4.5c-20.3,0-103.3-41.2-145.5-34c-58.6,10.1-150.2,53-168.7,37C-25,817.5,96,603.6,96,533.5
	c0-38.6,13.8-61.5,19-85c2-9,34.1-101.6,55-92c26,12,82.9,59.2,149,60c90,1.1,110.9-44.4,137-40c12,2,49,72.9,52,82
	C516,482.5,539.9,524.2,539.9,542.3z"/>
<path class="st0" d="M456.8,231c2.5,47.2-24.5,88.4-36,100.3c-10,10.3-46.5,39-98.5,40c-85.5,1.6-136.5-90.4-136.5-116.5
	c0-3.2-7.7-18.7-0.9-32.3c1.9-3.8,6.1-29.8,17.4-27.7c5.1,1,31.9-5.6,41-4c8.8-4,109-35.8,170-26.8
	C421.8,165.3,455.4,204.5,456.8,231z"/>
<path class="st1" d="M182,171.6"/>
<path class="st2" d="M491.2,454.1l107.4,58.7"/>
<path class="st2" d="M624.4,516.5l-25.2-4.6l1.1,3.6l13.7,15.8"/>
<path class="st2" d="M567.6,494.2l22.3-2.9"/>
<path class="st3" d="M137.5,537.8L38,580.2L2.3,595.4"/>
<path class="st3" d="M35.2,578.5L9.4,562.3"/>
<path class="st3" d="M58.5,572l-12.8,29.4"/>
<circle class="st4" cx="411.3" cy="235.8" r="17"/>
<path class="st5" d="M459,291.8c1.5-5.8,2.3-9,2.7-10.8"/>
<path class="st5" d="M277.8,297.9"/>
<path class="st6" d="M303.8,367.3h46.9l55.1-21l36-37l13,3l9,10v21.4c0,0,2,12.6,5,19.6s-35.4,33.4-58.2,42.7l-22.8,9.3l-77.7,7
	l-54.7-15.6l-42.7-22.4l-42.9-30l9-18c-2-12,10.9-45.7,18-37C218.8,326.3,273,359.7,303.8,367.3z"/>
<path class="st7" d="M192.8,145.8l47.7-77l-3.4-18.2l29.5-10.9L288.3,58l61.8,12.5c0,0,31,11,35.7,25.4l4.6,14.2l-197.1,39.3"/>
<path class="st8" d="M200.7,139.3l193.7-35.9c18.4-3.4,36.2,8.8,39.6,27.2l0,0c3.4,18.4-8.8,36.2-27.2,39.6l-193.7,35.9
	c-18.4,3.4-36.2-8.8-39.6-27.2l0,0C170,160.4,182.2,142.7,200.7,139.3z"/>
<ellipse transform="matrix(0.9832 -0.1824 0.1824 0.9832 -2.2964 47.1691)" class="st9" cx="255.3" cy="36.1" rx="24.5" ry="20.5"/>
<circle class="st4" cx="306.3" cy="235.8" r="16"/>
<path class="st10" d="M278.3,317.3c13.4-19,26.8-17.5,49.4-19.2c29.4-2.2,45.5,10.9,51.9,27.5"/>
<path class="st11" d="M444.3,270.8l36,21h-69c0,0-49-5-51-8s-12.3-30.9,3.4-28L444.3,270.8z"/>
<path class="st12" d="M382.3,288.3c2-27.4,2-28.5,2-28.5"/>
<path class="st13" d="M273,311.7l9.8,9"/>
<path class="st13" d="M373.6,330.8l14.7-10.5"/>
<path class="st12" d="M398.2,290.4l3.1-27.5"/>
<path class="st12" d="M417.7,291.8l6.6-24.7"/>
<path class="st12" d="M437.7,291.8l7.6-20"/>
<path class="st5" d="M382.3,285.8"/>
</svg>
