<?xml version="1.0" encoding="utf-8"?>
<!-- Generator: Adobe Illustrator 25.4.1, SVG Export Plug-In . SVG Version: 6.00 Build 0)  -->
<svg version="1.1" id="Layer_1" xmlns="http://www.w3.org/2000/svg" xmlns:xlink="http://www.w3.org/1999/xlink" x="0px" y="0px"
	 viewBox="0 0 636.6 768" style="enable-background:new 0 0 636.6 768;" xml:space="preserve">
<style type="text/css">
	.st0{fill:#FFFFFF;}
	.st1{fill:#FFFFFF;stroke:#F2F2F2;stroke-width:7;stroke-miterlimit:10;}
	.st2{fill:none;stroke:#522D11;stroke-width:10;stroke-miterlimit:10;}
	.st3{fill:none;stroke:#61330F;stroke-width:10;stroke-miterlimit:10;}
	.st4{fill:#606060;}
	.st5{fill:none;stroke:#000000;stroke-miterlimit:10;}
	.st6{fill:#F299A7;}
	.st7{fill:#ACD295;}
	.st8{fill:#F39FB0;}
	.st9{fill:#F4A9B6;}
	.st10{fill:none;stroke:#666666;stroke-width:7;stroke-miterlimit:10;}
	.st11{fill:#FBC371;}
	.st12{fill:none;stroke:#FBB03B;stroke-miterlimit:10;}
	.st13{fill:none;stroke:#666666;stroke-width:4;stroke-miterlimit:10;}
</style>
<path class="st0" d="M531.8,538.3c0,119.3-98.4,194-216,194s-213-72.7-213-192c0-38.6,13.8-61.5,19-85c2-9,34.1-101.6,55-92
	c26,12,82.9,59.2,149,60c90,1.1,110.9-44.4,137-40c12,2,49,72.9,52,82C522.8,489.3,531.8,520.2,531.8,538.3z"/>
<path class="st0" d="M461.9,228.3c0,47.3-26.5,90.1-38,102c-10,10.3-46.5,39-98.5,40c-85.5,1.6-136.5-90.4-136.5-116.5
	c0-3.2-7.7-18.7-0.9-32.3c1.9-3.8,6.1-29.8,17.4-27.7c5.1,1,31.9-5.6,41-4c8.8-4,140.5-5.5,201.5,3.5
	C456.5,194.6,461.9,214.1,461.9,228.3z"/>
<path class="st1" d="M182,171.6"/>
<path class="st2" d="M483.3,419.8l92-5"/>
<path class="st2" d="M593.3,405.8l-18,9l2.1,2.5l14.9,6.5"/>
<path class="st2" d="M548.1,414.8l13.2-14"/>
<path class="st3" d="M152.3,444.8l-93.5-14.7l-33.5-5.3"/>
<path class="st3" d="M58.8,430.1l-13.5-27.3"/>
<path class="st3" d="M99.6,436.5l-26.3,18.3"/>
<circle class="st4" cx="411.3" cy="235.8" r="17"/>
<path class="st5" d="M459,291.8c1.5-5.8,2.3-9,2.7-10.8"/>
<path class="st5" d="M277.8,297.9"/>
<path class="st6" d="M303.8,367.3h46.9l55.1-21l36-37l13,3l9,10v21.4c0,0,2,12.6,5,19.6s-35.4,33.4-58.2,42.7l-22.8,9.3l-77.7,7
	l-54.7-15.6l-42.7-22.4l-42.9-30l9-18c-2-12,10.9-45.7,18-37C218.8,326.3,273,359.7,303.8,367.3z"/>
<path class="st7" d="M220.3,125.8l61-67V40.2l31-5.4l18,22l58.5,23.5c0,0,28.5,16.5,30.5,31.5l2,15l-201,2.6"/>
<path class="st8" d="M229.3,120.8h197c18.8,0,34,15.2,34,34l0,0c0,18.8-15.2,34-34,34h-197c-18.8,0-34-15.2-34-34l0,0
	C195.3,136,210.5,120.8,229.3,120.8z"/>
<ellipse class="st9" cx="301.8" cy="29.3" rx="24.5" ry="20.5"/>
<circle class="st4" cx="306.3" cy="235.8" r="16"/>
<path class="st10" d="M277.1,313.7c28.2,0,27.4,2.4,50,0.7c29.4-2.2,28.6-1.5,56.6,3.1"/>
<path class="st11" d="M444.3,270.8l36,21h-69c0,0-49-5-51-8s-12.3-30.9,3.4-28L444.3,270.8z"/>
<path class="st12" d="M382.3,288.3c2-27.4,2-28.5,2-28.5"/>
<path class="st13" d="M275,319.1l3.6-12.9"/>
<path class="st13" d="M383.7,326.1l3.2-17.8"/>
<path class="st12" d="M398.2,290.4l3.1-27.5"/>
<path class="st12" d="M417.7,291.8l6.6-24.7"/>
<path class="st12" d="M437.7,291.8l7.6-20"/>
<path class="st5" d="M382.3,285.8"/>
</svg>
