<svg id="Layer_2" data-name="Layer 2" xmlns="http://www.w3.org/2000/svg" viewBox="0 0 571.01 727.5"><defs><style>.cls-1{fill:#fff;stroke-width:7px;}.cls-1,.cls-10,.cls-11,.cls-4,.cls-5,.cls-6,.cls-8,.cls-9{stroke:#000;}.cls-1,.cls-10,.cls-11,.cls-2,.cls-3,.cls-4,.cls-5,.cls-6,.cls-7,.cls-8,.cls-9{stroke-miterlimit:10;}.cls-10,.cls-2,.cls-3,.cls-5{fill:none;}.cls-2{stroke:#522d11;}.cls-2,.cls-3{stroke-width:10px;}.cls-3{stroke:#61330f;}.cls-4{fill:#1d1d1b;}.cls-6{fill:#f299a7;}.cls-7{fill:#acd295;stroke:#1d1d1b;}.cls-8{fill:#f39fb0;}.cls-9{fill:#f4a9b6;}.cls-10{stroke-width:4px;}.cls-11{fill:#fbc371;}</style></defs><path class="cls-1" d="M484,569.89c0,119.29-98.36,194-216,194s-213-72.71-213-192c0-38.64,13.77-61.49,19-85,2-9,34.12-101.64,55-92,26,12,82.91,59.21,149,60,89.95,1.08,110.88-44.35,137-40,12,2,49,72.86,52,82C475,520.89,484,551.75,484,569.89Z" transform="translate(23.28 -39.89)"/><path class="cls-1" d="M411,260.89c0,47.27-26.48,90.13-38,102-10,10.31-46.54,39.05-98.5,40C189,404.45,138,312.53,138,286.39c0-3.23-7.66-18.7-.86-32.34,1.88-3.78,6.08-29.78,17.36-27.66,16,3,27.66-6.36,41-4,8.82-4,140.5-5.5,201.5,3.5C405.56,227.15,411,246.67,411,260.89Z" transform="translate(23.28 -39.89)"/><path class="cls-2" d="M435.5,451.39l92-5" transform="translate(23.28 -39.89)"/><path class="cls-2" d="M545.5,437.39l-18,9,2.08,2.5,14.92,6.5" transform="translate(23.28 -39.89)"/><path class="cls-2" d="M500.27,446.39l13.23-14" transform="translate(23.28 -39.89)"/><path class="cls-3" d="M104.5,476.39,11,461.67l-33.53-5.28" transform="translate(23.28 -39.89)"/><path class="cls-3" d="M11,461.67-2.5,434.39" transform="translate(23.28 -39.89)"/><path class="cls-3" d="M51.83,468.1,25.5,486.39" transform="translate(23.28 -39.89)"/><circle class="cls-4" cx="386.78" cy="227.5" r="17"/><path class="cls-5" d="M411.25,323.39c1.46-5.83,2.26-9,2.7-10.82" transform="translate(23.28 -39.89)"/><path class="cls-5" d="M230,329.48" transform="translate(23.28 -39.89)"/><path class="cls-6" d="M256,398.89h46.9l55.1-21,36-37,13,3,9,10v21.44s2,12.56,5,19.56-35.38,33.38-58.19,42.69L340,446.89l-77.67,7L207.6,438.26l-42.69-22.41-42.91-30,9-18c-2-12,10.95-45.66,18-37C171,357.89,225.17,391.24,256,398.89Z" transform="translate(23.28 -39.89)"/><path class="cls-7" d="M172.5,157.39l61-67V71.79l31-5.4,18,22L341,111.89s28.47,16.5,30.47,31.5l2,15L172.5,161" transform="translate(23.28 -39.89)"/><rect class="cls-8" x="170.78" y="112.5" width="265" height="68" rx="34"/><ellipse class="cls-9" cx="277.28" cy="21" rx="24.5" ry="20.5"/><circle class="cls-4" cx="281.78" cy="227.5" r="16"/><path class="cls-10" d="M358.5,340.39c-17,24-34,22-62.5,24-37.19,2.61-57.5-14-65.5-35" transform="translate(23.28 -39.89)"/><path class="cls-11" d="M396.5,302.39l36,21h-69s-49-5-51-8-12.31-30.91,3.35-28Z" transform="translate(23.28 -39.89)"/><path class="cls-5" d="M334.5,319.39c2-27,2-28,2-28" transform="translate(23.28 -39.89)"/><path class="cls-5" d="M222.5,332.39l13-3" transform="translate(23.28 -39.89)"/><path class="cls-5" d="M353,332.39l12.55,13" transform="translate(23.28 -39.89)"/><path class="cls-5" d="M350.39,321.94l3.11-27.55" transform="translate(23.28 -39.89)"/><path class="cls-5" d="M369.91,323.39l6.59-25" transform="translate(23.28 -39.89)"/><path class="cls-5" d="M389.92,323.39l7.58-20" transform="translate(23.28 -39.89)"/><path class="cls-5" d="M334.5,317.39" transform="translate(23.28 -39.89)"/></svg>