<svg id="Layer_1" data-name="Layer 1" xmlns="http://www.w3.org/2000/svg" viewBox="0 0 571.04 723.5"><defs><style>.cls-1,.cls-2{fill:#fff;}.cls-2{stroke:#f2f2f2;}.cls-11,.cls-13,.cls-14,.cls-2,.cls-3,.cls-4,.cls-6{stroke-miterlimit:10;}.cls-11,.cls-2{stroke-width:7px;}.cls-11,.cls-13,.cls-14,.cls-3,.cls-4,.cls-6{fill:none;}.cls-3{stroke:#522d11;}.cls-3,.cls-4{stroke-width:10px;}.cls-4{stroke:#61330f;}.cls-5{fill:#606060;}.cls-6{stroke:#000;}.cls-7{fill:#f299a7;}.cls-8{fill:#acd295;}.cls-9{fill:#f39fb0;}.cls-10{fill:#f4a9b6;}.cls-11,.cls-14{stroke:#666;}.cls-12{fill:#fbc371;}.cls-13{stroke:#fbb03b;}.cls-14{stroke-width:4px;}</style></defs><path class="cls-1" d="M531.79,538.33c0,119.29-98.36,194-216,194s-213-72.71-213-192c0-38.64,13.77-61.49,19-85,2-9,34.12-101.64,55-92,26,12,82.91,59.21,149,60,89.95,1.08,110.88-44.35,137-40,12,2,49,72.86,52,82C522.79,489.33,531.79,520.19,531.79,538.33Z" transform="translate(-24.48 -8.83)"/><path class="cls-1" d="M458.79,229.33c0,47.27-26.48,90.13-38,102-10,10.31-46.54,39.05-98.5,40-85.5,1.56-136.5-90.36-136.5-116.5,0-3.23-7.66-18.7-.86-32.34,1.88-3.78,6.08-29.78,17.36-27.66,5.06.95,31.88-5.62,41-4,8.82-4,140.5-5.5,201.5,3.5C453.35,195.59,458.79,215.11,458.79,229.33Z" transform="translate(-24.48 -8.83)"/><path class="cls-2" d="M182,171.64" transform="translate(-24.48 -8.83)"/><path class="cls-3" d="M483.29,419.83l92-5" transform="translate(-24.48 -8.83)"/><path class="cls-3" d="M593.29,405.83l-18,9,2.08,2.5,14.92,6.5" transform="translate(-24.48 -8.83)"/><path class="cls-3" d="M548.06,414.83l13.23-14" transform="translate(-24.48 -8.83)"/><path class="cls-4" d="M152.29,444.83l-93.5-14.72-33.53-5.28" transform="translate(-24.48 -8.83)"/><path class="cls-4" d="M58.79,430.11l-13.5-27.28" transform="translate(-24.48 -8.83)"/><path class="cls-4" d="M99.62,436.54,73.29,454.83" transform="translate(-24.48 -8.83)"/><circle class="cls-5" cx="386.81" cy="227" r="17"/><path class="cls-6" d="M459,291.83c1.46-5.83,2.26-9,2.7-10.82" transform="translate(-24.48 -8.83)"/><path class="cls-6" d="M277.79,297.92" transform="translate(-24.48 -8.83)"/><path class="cls-7" d="M303.79,367.33h46.9l55.1-21,36-37,13,3,9,10v21.44s2,12.56,5,19.56S433.41,396.71,410.6,406l-22.81,9.31-77.67,7L255.39,406.7,212.7,384.29l-42.91-30,9-18c-2-12,11-45.66,18-37C218.79,326.33,273,359.68,303.79,367.33Z" transform="translate(-24.48 -8.83)"/><path class="cls-8" d="M220.29,125.83l61-67V40.23l31-5.4,18,22,58.5,23.5s28.47,16.5,30.47,31.5l2,15-201,2.61" transform="translate(-24.48 -8.83)"/><path class="cls-9" d="M229.29,120.83h197a34,34,0,0,1,34,34h0a34,34,0,0,1-34,34h-197a34,34,0,0,1-34-34h0A34,34,0,0,1,229.29,120.83Z" transform="translate(-24.48 -8.83)"/><ellipse class="cls-10" cx="277.31" cy="20.5" rx="24.5" ry="20.5"/><circle class="cls-5" cx="281.81" cy="227" r="16"/><path class="cls-11" d="M406.29,308.83c-17,24-34,22-62.5,24-37.19,2.61-57.5-14-65.5-35" transform="translate(-24.48 -8.83)"/><path class="cls-12" d="M444.29,270.83l36,21h-69s-49-5-51-8-12.31-30.91,3.35-28Z" transform="translate(-24.48 -8.83)"/><path class="cls-13" d="M382.29,288.29c2-27.45,2-28.46,2-28.46" transform="translate(-24.48 -8.83)"/><path class="cls-14" d="M271.94,299l13-3" transform="translate(-24.48 -8.83)"/><path class="cls-14" d="M400.33,302.48l12.55,13" transform="translate(-24.48 -8.83)"/><path class="cls-13" d="M398.18,290.38l3.11-27.55" transform="translate(-24.48 -8.83)"/><path class="cls-13" d="M417.7,291.83l6.59-24.7" transform="translate(-24.48 -8.83)"/><path class="cls-13" d="M437.71,291.83l7.58-20" transform="translate(-24.48 -8.83)"/><path class="cls-6" d="M382.29,285.83" transform="translate(-24.48 -8.83)"/></svg>