<svg xmlns="http://www.w3.org/2000/svg" viewBox="0 0 171.34 227.95"><defs><style>.cls-1{fill:#3c2514;}.cls-2{fill:#7d5932;}.cls-3{fill:#c47927;}.cls-4{fill:#bc6c2b;}.cls-5{fill:#aa661b;}.cls-6{fill:none;}.cls-7{fill:#d1e9f2;}.cls-8{fill:#afd9e0;}</style></defs><g id="Layer_2" data-name="Layer 2"><g id="Layer_1-2" data-name="Layer 1"><rect class="cls-1" x="89.93" y="85.87" width="4.22" height="142.08"/><rect class="cls-2" x="73.03" y="85.87" width="16.9" height="142.08"/><circle class="cls-3" cx="77.45" cy="57.26" r="55.87"/><path class="cls-4" d="M77.51,1.39A55.74,55.74,0,0,0,56.9,5.31a55.83,55.83,0,0,1,4.4,105.3A55.82,55.82,0,1,0,77.51,1.39Z"/><circle class="cls-3" cx="128.33" cy="92.01" r="41.47"/><rect class="cls-1" x="79.6" y="116.94" width="50.18" height="1.69" transform="translate(-51.65 137.57) rotate(-55.58)"/><rect class="cls-2" x="76.43" y="112.62" width="50.18" height="5.99" transform="translate(-51.24 134.01) rotate(-55.58)"/><circle class="cls-3" cx="39.43" cy="115.63" r="38.98"/><path class="cls-5" d="M129.41,49.77a40.66,40.66,0,0,0-15.29,2.95,42,42,0,0,1,3.26,79,40.91,40.91,0,0,0,12,1.79,41.86,41.86,0,0,0,0-83.71Z"/><circle class="cls-3" cx="81.48" cy="91.63" r="21.5"/><path class="cls-5" d="M39.27,77.06a40.28,40.28,0,0,0-14.6,2.73,38.54,38.54,0,0,1,3.1,73.15,39.94,39.94,0,0,0,11.5,1.66c21.84,0,39.55-17.35,39.55-38.78S61.13,77.06,39.27,77.06Z"/><rect class="cls-2" x="59.73" y="121.63" width="5.69" height="57.98" transform="translate(-72.69 59.49) rotate(-33.47)"/><rect class="cls-1" x="64.81" y="119.62" width="1.61" height="57.98" transform="translate(-71.08 60.83) rotate(-33.47)"/><rect class="cls-6" x="73.03" y="150.55" width="10.75" height="38.82"/></g><g id="Layer_4" data-name="Layer 4"><path class="cls-7" d="M38.81,53.79c7.88-2.47,13.9-8.56,22.23-10.17,8.15-1.57,15.55.44,22.94,3.86,1.53.71,3,1.46,4.54,2.19,9.92-1.16,19.86,1.39,29.84,2.44a70.56,70.56,0,0,0,15.06-4A56.49,56.49,0,0,0,21.19,52.83C27.13,53.79,33,55.6,38.81,53.79Z"/><path class="cls-8" d="M130.22,47.67A41.51,41.51,0,0,0,89.63,80.55q.11.48.24,1c.7,2.48,2.91,4,5.28,4.88,4.28,1.57,9.06,0,13.66-.76a41.45,41.45,0,0,1,44,.76c1.09.47,2.17,1,3.24,1.49,3.95.46,8.39,1.66,11.85.47,1.94-.66,2.95-2.52,3.4-4.74A41.5,41.5,0,0,0,130.22,47.67Z"/><path class="cls-7" d="M8.24,110c5.57-3.73,10.88-7.93,17.2-10.29,7.77-2.91,16.06-2,23.65,1a79.37,79.37,0,0,1,18.83,10.64A43.84,43.84,0,0,0,76,112.52a13.47,13.47,0,0,0,2.67-.63A39.5,39.5,0,0,0,0,109.81,22.52,22.52,0,0,0,8.24,110Z"/></g></g></svg>
