<svg id="Layer_2" data-name="Layer 2" xmlns="http://www.w3.org/2000/svg" viewBox="0 0 79.05 64.93"><defs><style>.cls-1,.cls-2{fill:none;stroke-miterlimit:10;}.cls-1{stroke:#878787;}.cls-2{stroke:#575756;stroke-width:0.5px;}</style></defs><path class="cls-1" d="M82.36,260.89" transform="translate(-236.05 -214.8)"/><path class="cls-2" d="M236.13,245.7l19-5.61,13.93-5.61" transform="translate(-236.05 -214.8)"/><path class="cls-2" d="M236.13,248.05l12.66,1.81,17.91,7.42,5.06,4.16" transform="translate(-236.05 -214.8)"/><path class="cls-2" d="M253.94,250.58l25.6,2.72H281" transform="translate(-236.05 -214.8)"/><path class="cls-2" d="M242.82,245.7l26.77.72" transform="translate(-236.05 -214.8)"/><path class="cls-2" d="M252.59,243l15.74-1.26" transform="translate(-236.05 -214.8)"/><path class="cls-2" d="M272.67,230.68c0-7.17,2.73-15.63,9.9-15.63a13,13,0,0,1,13,13" transform="translate(-236.05 -214.8)"/><path class="cls-2" d="M287,228.83c3.92-6,12.83-9.93,17.56-6,3.79,3.18,6.63,9.41,2.71,15.41" transform="translate(-236.05 -214.8)"/><path class="cls-2" d="M307.22,238.28c4.61.48,8.64,7.11,7.42,11.58-.94,3.44-7.08,8.89-6.51,8.68" transform="translate(-236.05 -214.8)"/><path class="cls-2" d="M282.6,239.68a10.18,10.18,0,0,1-.94-6.09c.21-1.21.51-2.89,1.89-3.77s5-.85,6.12-.53c2.34.68,2,2.65,2.7,3.51" transform="translate(-236.05 -214.8)"/><path class="cls-2" d="M285.33,264c-.57-1.19-4.31-2.72-4.34-5.42,0-3.81,1.18-7.06,2.56-7.94a8.49,8.49,0,0,1,5.4-.75c2.34.68,1.09-.14,1.78.72" transform="translate(-236.05 -214.8)"/><path class="cls-2" d="M292.37,226.34c3.94,0,9.23,3.55,9.23,8.14s-3.2,8.32-7.15,8.32" transform="translate(-236.05 -214.8)"/><path class="cls-2" d="M303,263.07c0,2.26,2.52,7.54,0,11.75-1.39,2.32-6.18,4.33-9,4.62-3.3.34-7.07-1.34-9.91-5.52" transform="translate(-236.05 -214.8)"/><path class="cls-2" d="M284.11,273.92c-4.28.75-12-2.3-12-7.64s3.77-11.54,8.82-11.54" transform="translate(-236.05 -214.8)"/><path class="cls-2" d="M275.3,249.86c-6.17-2.83-8.68-8.16-5.85-14.34s6.65-7,12.83-4.18" transform="translate(-236.05 -214.8)"/><path class="cls-2" d="M294.12,258.84c3.49,3.1,2,8.45-2.68,8.45s-6.65-3.16-4.49-7.3" transform="translate(-236.05 -214.8)"/><path class="cls-2" d="M309.64,256.84c1.4,7.13-2.17,9.35-4.82,9.35" transform="translate(-236.05 -214.8)"/></svg>
