<?xml version="1.0" encoding="utf-8"?>
<!-- Generator: Adobe Illustrator 25.4.1, SVG Export Plug-In . SVG Version: 6.00 Build 0)  -->
<svg version="1.1" id="Layer_1" xmlns="http://www.w3.org/2000/svg" xmlns:xlink="http://www.w3.org/1999/xlink" x="0px" y="0px"
	 viewBox="0 0 19.4 32.9" style="enable-background:new 0 0 19.4 32.9;" xml:space="preserve">
<style type="text/css">
	.st0{fill:#F7BC00;}
	.st1{fill:#DDC30A;}
	.st2{fill:#48AA5F;}
	.st3{fill:#1E7C2E;}
	.st4{fill:#F9E44B;}
</style>
<ellipse transform="matrix(0.2267 -0.974 0.974 0.2267 1.554 14.0504)" class="st0" cx="9.6" cy="6" rx="5.1" ry="3.6"/>
<ellipse transform="matrix(0.5804 -0.8143 0.8143 0.5804 -4.804 7.754)" class="st1" cx="5.1" cy="8.5" rx="3.2" ry="5.4"/>
<ellipse transform="matrix(0.6157 -0.788 0.788 0.6157 -0.605 14.3268)" class="st1" cx="14.4" cy="7.8" rx="5.6" ry="3.1"/>
<rect x="8.1" y="12.1" class="st2" width="2.3" height="19.2"/>
<rect x="10.4" y="12.1" class="st3" width="1" height="19.2"/>
<ellipse class="st4" cx="9.3" cy="7.4" rx="4" ry="5.4"/>
<ellipse transform="matrix(0.7071 -0.7071 0.7071 0.7071 -9.528 8.4946)" class="st2" cx="5.5" cy="15.7" rx="4.6" ry="1"/>
<ellipse transform="matrix(0.8096 -0.5869 0.5869 0.8096 -6.6387 11.1314)" class="st2" cx="13.8" cy="15.8" rx="1" ry="4.6"/>
</svg>
