<?xml version="1.0" encoding="utf-8"?>
<!-- Generator: Adobe Illustrator 25.4.1, SVG Export Plug-In . SVG Version: 6.00 Build 0)  -->
<svg version="1.1" id="Layer_1" xmlns="http://www.w3.org/2000/svg" xmlns:xlink="http://www.w3.org/1999/xlink" x="0px" y="0px"
	 viewBox="0 0 21.2 33.3" style="enable-background:new 0 0 21.2 33.3;" xml:space="preserve">
<style type="text/css">
	.st0{fill:#F4DFEA;}
	.st1{fill:#48AA5F;}
	.st2{fill:#248E38;}
</style>
<ellipse class="st0" cx="10" cy="6.6" rx="3.1" ry="2.9"/>
<rect x="9.3" y="11.4" class="st1" width="2.3" height="18.2"/>
<ellipse transform="matrix(0.9571 -0.2897 0.2897 0.9571 -2.4658 2.7077)" class="st1" cx="7.9" cy="9.7" rx="2.5" ry="4.8"/>
<ellipse transform="matrix(0.2659 -0.964 0.964 0.2659 -0.277 18.996)" class="st1" cx="12.3" cy="9.7" rx="4.8" ry="2.5"/>
<rect x="11.5" y="14.1" class="st2" width="0.8" height="15.5"/>
<path class="st2" d="M10.6,8.4c-0.1-0.1-0.3-0.1-0.4,0c0.2,1,0.3,2.1,0.1,3.1c0,1-0.4,1.9-1,2.7c0,0.2,0.2,0.4,0.4,0.6
	c0.5,0.3,1.1-1,1.4-2.8S11.1,8.7,10.6,8.4z"/>
</svg>
