<?xml version="1.0" encoding="utf-8"?>
<!-- Generator: Adobe Illustrator 25.4.1, SVG Export Plug-In . SVG Version: 6.00 Build 0)  -->
<svg version="1.1" id="Layer_1" xmlns="http://www.w3.org/2000/svg" xmlns:xlink="http://www.w3.org/1999/xlink" x="0px" y="0px"
	 viewBox="0 0 21.2 31.5" style="enable-background:new 0 0 21.2 31.5;" xml:space="preserve">
<style type="text/css">
	.st0{fill:#D389B7;}
	.st1{fill:#E5A1C8;}
	.st2{fill:#48AA5F;}
	.st3{fill:#1E7C2E;}
	.st4{fill:#F7B5D8;}
</style>
<ellipse transform="matrix(0.2267 -0.974 0.974 0.2267 2.8199 14.5529)" class="st0" cx="10.6" cy="5.5" rx="5.1" ry="3.6"/>
<ellipse transform="matrix(0.5804 -0.8143 0.8143 0.5804 -3.9667 8.301)" class="st1" cx="6.1" cy="8" rx="3.2" ry="5.5"/>
<ellipse transform="matrix(0.6157 -0.788 0.788 0.6157 0.1917 14.8576)" class="st1" cx="15.3" cy="7.2" rx="5.6" ry="3.1"/>
<rect x="9.1" y="11.6" class="st2" width="2.3" height="19.2"/>
<rect x="11.4" y="11.6" class="st3" width="1" height="19.2"/>
<ellipse class="st4" cx="10.3" cy="6.9" rx="4" ry="5.4"/>
<ellipse transform="matrix(0.7071 -0.7071 0.7071 0.7071 -8.8599 9.0013)" class="st2" cx="6.4" cy="15.2" rx="4.6" ry="1"/>
<ellipse transform="matrix(0.8096 -0.5869 0.5869 0.8096 -6.1743 11.4764)" class="st2" cx="14.6" cy="15.3" rx="1" ry="4.6"/>
</svg>
