<?xml version="1.0" encoding="utf-8"?>
<!-- Generator: Adobe Illustrator 25.4.1, SVG Export Plug-In . SVG Version: 6.00 Build 0)  -->
<svg version="1.1" id="Layer_1" xmlns="http://www.w3.org/2000/svg" xmlns:xlink="http://www.w3.org/1999/xlink" x="0px" y="0px"
	 viewBox="0 0 23.4 32.9" style="enable-background:new 0 0 23.4 32.9;" xml:space="preserve">
<style type="text/css">
	.st0{fill:#BAB5B8;}
	.st1{fill:#C6BDC2;}
	.st2{fill:#7CA584;}
	.st3{fill:#517756;}
	.st4{fill:#D8D4D6;}
</style>
<ellipse transform="matrix(0.6517 -0.7585 0.7585 0.6517 6.589726e-02 13.2393)" class="st0" cx="14.4" cy="6.5" rx="3" ry="5.1"/>
<ellipse transform="matrix(0.6517 -0.7585 0.7585 0.6517 -4.3878 8.168)" class="st1" cx="6.7" cy="8.9" rx="5.4" ry="2.9"/>
<ellipse transform="matrix(0.8336 -0.5524 0.5524 0.8336 -2.1938 9.7564)" class="st1" cx="15.1" cy="8.5" rx="2.7" ry="5.6"/>
<rect x="9.5" y="6.7" class="st2" width="2.3" height="18"/>
<rect x="11.8" y="6.7" class="st3" width="0.9" height="18"/>
<ellipse transform="matrix(0.9233 -0.384 0.384 0.9233 -2.3624 5.2192)" class="st4" cx="11.9" cy="8.5" rx="4" ry="5.4"/>
<ellipse transform="matrix(0.8096 -0.5869 0.5869 0.8096 -15.8619 7.786)" class="st2" cx="4.1" cy="28.3" rx="4.9" ry="1"/>
<ellipse transform="matrix(0.3254 -0.9456 0.9456 0.3254 -10.835 34.4201)" class="st2" cx="18.7" cy="24.8" rx="1" ry="4.6"/>
</svg>
