<?xml version="1.0" encoding="utf-8"?>
<!-- Generator: Adobe Illustrator 25.4.1, SVG Export Plug-In . SVG Version: 6.00 Build 0)  -->
<svg version="1.1" id="Layer_1" xmlns="http://www.w3.org/2000/svg" xmlns:xlink="http://www.w3.org/1999/xlink" x="0px" y="0px"
	 viewBox="0 0 21.2 33.3" style="enable-background:new 0 0 21.2 33.3;" xml:space="preserve">
<style type="text/css">
	.st0{fill:#F4DFEA;}
	.st1{fill:#48AA5F;}
	.st2{fill:#1E7C2E;}
	.st3{fill:#248E38;}
</style>
<ellipse class="st0" cx="10.5" cy="6.1" rx="3.1" ry="3.7"/>
<rect x="9.3" y="10.5" class="st1" width="2.3" height="20.4"/>
<ellipse transform="matrix(0.3312 -0.9435 0.9435 0.3312 -0.4278 18.6247)" class="st1" cx="12.9" cy="9.6" rx="4.8" ry="2.5"/>
<rect x="11.6" y="14" class="st2" width="0.7" height="16.9"/>
<ellipse transform="matrix(0.8866 -0.4625 0.4625 0.8866 -3.5339 4.5418)" class="st1" cx="7.5" cy="9.5" rx="2.5" ry="4.8"/>
<path class="st3" d="M10.3,9.4c-0.1-0.1-0.3-0.1-0.4,0c0.2,0.8,0.3,1.6,0.1,2.4c-0.1,0.8-0.5,1.5-1.1,2.1c0.1,0.2,0.2,0.4,0.4,0.5
	c0.5,0.2,1.2-0.8,1.5-2.1S10.8,9.6,10.3,9.4z"/>
<path class="st3" d="M12.1,14.3c0.1-0.1,0.2-0.2,0.2-0.3c-0.5-0.1-1-0.5-1.2-0.9c-0.4-0.5-0.5-1.1-0.4-1.7c-0.2,0-0.3,0-0.5,0.1
	c-0.4,0.3-0.4,1.2,0.2,2S11.7,14.7,12.1,14.3z"/>
</svg>
