<?xml version="1.0" encoding="utf-8"?>
<!-- Generator: Adobe Illustrator 25.4.1, SVG Export Plug-In . SVG Version: 6.00 Build 0)  -->
<svg version="1.1" id="Layer_1" xmlns="http://www.w3.org/2000/svg" xmlns:xlink="http://www.w3.org/1999/xlink" x="0px" y="0px"
	 viewBox="0 0 19.4 32.9" style="enable-background:new 0 0 19.4 32.9;" xml:space="preserve">
<style type="text/css">
	.st0{fill:#DFE563;}
	.st1{fill:#48AA5F;}
	.st2{fill:#248E38;}
</style>
<ellipse class="st0" cx="8.8" cy="6.9" rx="3.1" ry="2.9"/>
<rect x="8.1" y="11.7" class="st1" width="2.3" height="18.2"/>
<ellipse transform="matrix(0.9571 -0.2897 0.2897 0.9571 -2.5909 2.3685)" class="st1" cx="6.7" cy="9.9" rx="2.5" ry="4.8"/>
<ellipse transform="matrix(0.2659 -0.964 0.964 0.2659 -1.4045 18.0279)" class="st1" cx="11.1" cy="9.9" rx="4.8" ry="2.5"/>
<rect x="10.3" y="14.4" class="st2" width="0.8" height="15.5"/>
<path class="st2" d="M9.4,8.7C9.3,8.6,9.2,8.6,9,8.7c0.2,1,0.3,2.1,0.1,3.1c0,1-0.4,1.9-1,2.7c0,0.2,0.2,0.4,0.4,0.6
	c0.5,0.3,1.2-1,1.4-2.8S9.9,8.9,9.4,8.7z"/>
</svg>
