<?xml version="1.0" encoding="utf-8"?>
<!-- Generator: Adobe Illustrator 25.4.1, SVG Export Plug-In . SVG Version: 6.00 Build 0)  -->
<svg version="1.1" id="Layer_1" xmlns="http://www.w3.org/2000/svg" xmlns:xlink="http://www.w3.org/1999/xlink" x="0px" y="0px"
	 viewBox="0 0 21.2 30.5" style="enable-background:new 0 0 21.2 30.5;" xml:space="preserve">
<style type="text/css">
	.st0{fill:#D39BBB;}
	.st1{fill:#E0A9C6;}
	.st2{fill:#62A56F;}
	.st3{fill:#1E7C2E;}
	.st4{fill:#EFBFD6;}
</style>
<ellipse transform="matrix(0.2267 -0.974 0.974 0.2267 2.554 14.259)" class="st0" cx="10.3" cy="5.5" rx="5.1" ry="3.6"/>
<ellipse transform="matrix(0.5804 -0.8143 0.8143 0.5804 -5.579 8.1695)" class="st1" cx="5.1" cy="9.5" rx="2.8" ry="5.5"/>
<ellipse transform="matrix(0.8096 -0.5869 0.5869 0.8096 -2.0758 10.8483)" class="st1" cx="15.7" cy="8.6" rx="5.6" ry="2.8"/>
<rect x="8.7" y="11.6" class="st2" width="2.3" height="18"/>
<rect x="11" y="11.6" class="st3" width="0.9" height="18"/>
<ellipse class="st4" cx="10" cy="6.9" rx="4" ry="5.4"/>
<ellipse transform="matrix(0.5 -0.866 0.866 0.5 -10.7307 14.139)" class="st2" cx="6.9" cy="16.4" rx="4.6" ry="1"/>
<ellipse transform="matrix(0.8096 -0.5869 0.5869 0.8096 -8.7317 13.9566)" class="st2" cx="17.1" cy="20.4" rx="1" ry="4.6"/>
</svg>
