<?xml version="1.0" encoding="utf-8"?>
<!-- Generator: Adobe Illustrator 25.4.1, SVG Export Plug-In . SVG Version: 6.00 Build 0)  -->
<svg version="1.1" id="Layer_1" xmlns="http://www.w3.org/2000/svg" xmlns:xlink="http://www.w3.org/1999/xlink" x="0px" y="0px"
	 viewBox="0 0 23.1 32.9" style="enable-background:new 0 0 23.1 32.9;" xml:space="preserve">
<style type="text/css">
	.st0{fill:#BAB5B8;}
	.st1{fill:#C6BDC2;}
	.st2{fill:#7CA584;}
	.st3{fill:#517756;}
	.st4{fill:#D8D4D6;}
</style>
<ellipse transform="matrix(0.7071 -0.7071 0.7071 0.7071 -0.716 10.8588)" class="st0" cx="12.7" cy="6.3" rx="5.1" ry="3.6"/>
<ellipse transform="matrix(0.8806 -0.4738 0.4738 0.8806 -4.5505 3.8382)" class="st1" cx="5.3" cy="11" rx="5.4" ry="2.9"/>
<ellipse transform="matrix(0.4346 -0.9006 0.9006 0.4346 -0.794 20.4663)" class="st1" cx="15.9" cy="10.9" rx="2.8" ry="5.6"/>
<rect x="9" y="10.7" class="st2" width="2.3" height="18"/>
<rect x="11.3" y="10.7" class="st3" width="0.9" height="18"/>
<ellipse transform="matrix(0.9233 -0.384 0.384 0.9233 -3.9476 5.3081)" class="st4" cx="11.3" cy="12.5" rx="4" ry="5.4"/>
<ellipse transform="matrix(0.5 -0.866 0.866 0.5 -19.9852 14.8466)" class="st2" cx="2.9" cy="24.7" rx="4.6" ry="1"/>
<ellipse transform="matrix(0.3254 -0.9456 0.9456 0.3254 -12.8293 35.0133)" class="st2" cx="18.1" cy="26.5" rx="1" ry="4.6"/>
</svg>
