<?xml version="1.0" encoding="utf-8"?>
<!-- Generator: Adobe Illustrator 25.4.1, SVG Export Plug-In . SVG Version: 6.00 Build 0)  -->
<svg version="1.1" id="Layer_1" xmlns="http://www.w3.org/2000/svg" xmlns:xlink="http://www.w3.org/1999/xlink" x="0px" y="0px"
	 viewBox="0 0 20.5 32.9" style="enable-background:new 0 0 20.5 32.9;" xml:space="preserve">
<style type="text/css">
	.st0{fill:#BCA440;}
	.st1{fill:#B7AE6E;}
	.st2{fill:#C4B862;}
	.st3{fill:#62A56F;}
	.st4{fill:#1E7C2E;}
	.st5{fill:#E8D67C;}
</style>
<ellipse transform="matrix(0.2318 -0.9728 0.9728 0.2318 0.7836 15.3507)" class="st0" cx="10.1" cy="7.2" rx="5.1" ry="3.6"/>
<ellipse transform="matrix(0.5847 -0.8113 0.8113 0.5847 -6.9539 8.6488)" class="st1" cx="5" cy="11.1" rx="2.8" ry="5.4"/>
<ellipse transform="matrix(0.8127 -0.5827 0.5827 0.8127 -3.1036 10.9682)" class="st2" cx="15.5" cy="10.3" rx="5.6" ry="2.8"/>
<rect x="0.6" y="21.1" transform="matrix(5.256529e-03 -1 1 5.256529e-03 -12.6499 31.8063)" class="st3" width="18" height="2.3"/>
<rect x="2.3" y="21.8" transform="matrix(5.256529e-03 -1 1 5.256529e-03 -11.0469 33.4347)" class="st4" width="18" height="0.9"/>
<ellipse transform="matrix(5.256529e-03 -1 1 5.256529e-03 1.2308 18.2813)" class="st5" cx="9.8" cy="8.5" rx="5.4" ry="4"/>
<ellipse transform="matrix(0.5045 -0.8634 0.8634 0.5045 -12.2368 14.6795)" class="st3" cx="6.7" cy="18" rx="4.6" ry="1"/>
<ellipse transform="matrix(0.8096 -0.5869 0.5869 0.8096 -9.7346 14.1483)" class="st3" cx="16.9" cy="22.1" rx="1" ry="4.6"/>
</svg>
