<?xml version="1.0" encoding="utf-8"?>
<!-- Generator: Adobe Illustrator 25.4.1, SVG Export Plug-In . SVG Version: 6.00 Build 0)  -->
<svg version="1.1" id="Layer_1" xmlns="http://www.w3.org/2000/svg" xmlns:xlink="http://www.w3.org/1999/xlink" x="0px" y="0px"
	 viewBox="0 0 19.4 32.9" style="enable-background:new 0 0 19.4 32.9;" xml:space="preserve">
<style type="text/css">
	.st0{fill:#EAEA49;}
	.st1{fill:#48AA5F;}
	.st2{fill:#1E7C2E;}
	.st3{fill:#248E38;}
</style>
<ellipse class="st0" cx="9.4" cy="6" rx="3.1" ry="3.7"/>
<rect x="8.1" y="10.4" class="st1" width="2.3" height="20.3"/>
<ellipse transform="matrix(0.3305 -0.9438 0.9438 0.3305 -0.9257 17.6538)" class="st1" cx="12" cy="9.5" rx="4.8" ry="2.5"/>
<rect x="10.4" y="13.9" class="st2" width="0.7" height="16.9"/>
<ellipse transform="matrix(0.8866 -0.4625 0.4625 0.8866 -3.6192 4.0083)" class="st1" cx="6.4" cy="9.4" rx="2.5" ry="4.8"/>
<path class="st3" d="M9.2,9.3c-0.1,0-0.3,0-0.4,0c0.2,0.8,0.3,1.6,0.1,2.4c-0.1,0.8-0.5,1.5-1.1,2.1C7.8,14,8,14.2,8.1,14.2
	c0.5,0.2,1.2-0.8,1.5-2.1S9.7,9.5,9.2,9.3z"/>
<path class="st3" d="M11,14.2c0.1-0.1,0.2-0.2,0.2-0.3c-0.5-0.1-1-0.5-1.2-0.9c-0.4-0.5-0.5-1.1-0.4-1.7c-0.2,0-0.3,0-0.5,0.1
	c-0.4,0.3-0.4,1.2,0.2,2S10.6,14.6,11,14.2z"/>
</svg>
