<svg xmlns="http://www.w3.org/2000/svg" viewBox="0 0 170.38 226.56"><defs><style>.cls-1{fill:#3c2514;}.cls-2{fill:#7d5932;}.cls-3{fill:#c47927;}.cls-4{fill:#aa661b;}</style></defs><g id="Layer_2" data-name="Layer 2"><g id="Layer_1-2" data-name="Layer 1"><g id="Layer_2-2" data-name="Layer 2"><rect class="cls-1" x="89.47" y="84.48" width="4.22" height="142.08"/><rect class="cls-2" x="72.58" y="84.48" width="16.9" height="142.08"/><circle class="cls-3" cx="76.99" cy="55.87" r="55.87"/><path class="cls-4" d="M77.06,0A55.51,55.51,0,0,0,56.45,3.93a55.83,55.83,0,0,1,4.39,105.29A55.81,55.81,0,1,0,77.06,0Z"/><circle class="cls-3" cx="127.87" cy="90.62" r="41.47"/><rect class="cls-1" x="79.15" y="115.55" width="50.18" height="1.69" transform="translate(-50.7 136.59) rotate(-55.58)"/><rect class="cls-2" x="75.98" y="111.24" width="50.18" height="5.99" transform="translate(-50.29 133.04) rotate(-55.58)"/><circle class="cls-3" cx="38.98" cy="114.24" r="38.98"/><path class="cls-4" d="M129,48.38a41.15,41.15,0,0,0-15.3,2.95,42,42,0,0,1,3.26,79,41.79,41.79,0,1,0,12-81.92Z"/><circle class="cls-3" cx="81.02" cy="90.24" r="21.5"/><path class="cls-4" d="M38.81,75.67a40,40,0,0,0-14.59,2.74,38.53,38.53,0,0,1,3.1,73.14,40.28,40.28,0,0,0,11.49,1.67c21.84,0,39.55-17.36,39.55-38.79S60.67,75.67,38.81,75.67Z"/><rect class="cls-2" x="59.27" y="120.24" width="5.69" height="57.98" transform="translate(-72 59.01) rotate(-33.47)"/><rect class="cls-1" x="64.36" y="118.23" width="1.61" height="57.98" transform="translate(-70.39 60.35) rotate(-33.47)"/><rect class="cls-2" x="72.58" y="149.16" width="10.75" height="38.82"/></g></g></g></svg>