<svg xmlns="http://www.w3.org/2000/svg" viewBox="0 0 135.1 159.3"><defs><style>.cls-1{fill:#ccc}</style></defs><g id="Layer_2" data-name="Layer 2"><g id="Layer_1-2" data-name="Layer 1"><path class="cls-1" d="M93.7 0a7.4 7.4 0 0 0 1.5 2.2A10.7 10.7 0 0 0 99 4c7.3 2.6 15.6 8 19.6 13a20.6 20.6 0 0 1 4.5 9.3 18 18 0 0 1-.1 5.7c-.7 3.4-2 6.2-5.4 10.7l-.7 1v-.7a30.4 30.4 0 0 0-.5-4.5c-1.9-9.3-8.6-15.7-20-19a35 35 0 0 0-5-1.1 11.6 11.6 0 0 0 2.3 3 47.6 47.6 0 0 0 5.3 4.6 49 49 0 0 1 6.1 5.6 15 15 0 0 1 2.6 4.5 6 6 0 0 1 .4 2.7 6.8 6.8 0 0 1-.3 2.6 19.6 19.6 0 0 1-6.6 9.2c-1.7 1.3-1.7 1.3-1.6.9a31 31 0 0 0 0-5c-.5-4.7-3.4-8.8-7-10.3a8 8 0 0 0-4.4-.6c-.4.2-.4.3 1.6 2.5 2.1 2.4 3.1 3.9 3.7 5.6a6.6 6.6 0 0 1 .4 2.7 6.1 6.1 0 0 1-.4 2.4c-1.3 4.3-6.3 8-13.2 10a44.4 44.4 0 0 1-13 1.8c-9.2 0-17.7-2.2-22-5.7a9.2 9.2 0 0 1-3.6-5.4 9.5 9.5 0 0 1 .3-4.1c.7-2.2 2.1-3.6 5.7-5.6 2.5-1.3 3.7-2.3 4.5-3.4.5-.7.5-.7.2-.6l-1.5.3A38.8 38.8 0 0 0 45 38c-5.5 2.3-8.5 5.5-9 9.6a12.5 12.5 0 0 0 .9 5.7 6.7 6.7 0 0 1 .3 1 23.5 23.5 0 0 1-3.6-1.7c-3-1.9-5.9-5.2-6.7-7.7a6.2 6.2 0 0 1-.3-2.4 5.5 5.5 0 0 1 .3-2.6 18 18 0 0 1 5.6-7c1.4-1.3 2.4-2 6.5-4.9a148 148 0 0 0 4-3l.9-.7-.6-.2a19.6 19.6 0 0 0-5.7 0c-9 1.8-16.6 8-18.7 15.3a17 17 0 0 0-.6 5V46l-.8-.7a16.7 16.7 0 0 1-6-9.8 18 18 0 0 1 0-4.6c.6-3.7 2.6-7.1 6-10.4 6.2-5.6 14.8-9.8 24.9-12 2.4-.6 2.2-.4 2.2-1.7 0-1 0-1.1-.2-1.1-.8 0-5.2.5-7.1.9A65.1 65.1 0 0 0 9 18.7a24.1 24.1 0 0 0-6.1 6.4 15.6 15.6 0 0 0-.4 17.6c3.2 5 7.3 8.2 15.6 11.8.6.3.6.3 1.1 1.6a29.8 29.8 0 0 0 9.6 12.4c4.5 3.5 13.4 8.3 22.4 12 14 5.7 28.2 8.5 40 7.9a70.8 70.8 0 0 0 11.8-1.6 61.8 61.8 0 0 0 9.3-2.2 19.2 19.2 0 0 0 13.8-14.9 12.6 12.6 0 0 0 .3-1.4 7.1 7.1 0 0 0-1.2.8 68 68 0 0 1-50.6 10.7 106.4 106.4 0 0 1-33-11.2 57.7 57.7 0 0 1-12.2-7.8l-2-1.9a3.4 3.4 0 0 1-.7-.6 3 3 0 0 1 1 .3 106.2 106.2 0 0 0 26.7 6c10.8 1 26 .7 35.2-.8a86 86 0 0 0 32.8-12.3c7.2-4.6 11.3-10.2 12.5-16.9a22.6 22.6 0 0 0 0-6.2c-1.1-6.6-5.3-12.3-13-17.7a60.3 60.3 0 0 0-16.6-8.1 75.2 75.2 0 0 0-11-2.5h-.6Z"/><path class="cls-1" d="M64.3 44.6a41 41 0 0 0-9.8 2.3 11.8 11.8 0 0 0-3.2 1.7 10.2 10.2 0 0 0 1 2.9c1.7 3 5 5 9.7 5.6a50.5 50.5 0 0 0 9.5-.2l7.2-1.6a6.3 6.3 0 0 0 4-2.9c1.5-2.7-.2-5.1-4.8-6.5a49.4 49.4 0 0 0-10.2-1.3h-3.4ZM129 48.1a68.6 68.6 0 0 1-11.7 10 76.8 76.8 0 0 1-36.7 11.5c-9.4 1-11.5 1-17.2 0-5.2-1-6.8-1.1-9-1a11.8 11.8 0 0 0-4.7 1c-1.8.7-1.8.7 0 1C64 73.5 72 74.4 81.8 74.4a81.7 81.7 0 0 0 26.4-4 42.9 42.9 0 0 0 9.7-4.2 23.8 23.8 0 0 0 11.4-15.6 17.9 17.9 0 0 0 .5-3.3 6.1 6.1 0 0 0-.8.8ZM27.2 69.4 28 71a48.4 48.4 0 0 0 15 18c11 7.8 24.6 11.7 44 12.5 5 .2 14.4.2 16.6 0 8.7-.8 13.5-4.3 15.5-11.1a27.7 27.7 0 0 0 .7-4.2v-.7l-1.6 1.3a40.6 40.6 0 0 1-19 8.2 60.4 60.4 0 0 1-17.6-.2c-10-1.6-21.3-5.5-32.8-11.4a49.6 49.6 0 0 1-9.5-6.5 45.5 45.5 0 0 0-12-7.5ZM50 100.9a38.7 38.7 0 0 0 27.2 15.8 38.6 38.6 0 0 0 9-.3 21.9 21.9 0 0 0 13.4-8.3l.5-.6h-.8l-9.3.7a76.3 76.3 0 0 1-12.7.5c-4.4-.5-6.5-1.2-12.7-4.2a67.3 67.3 0 0 0-9.4-4.2 16.5 16.5 0 0 0-5-1H49Z"/><path class="cls-1" d="M52 110.4c.3 3.3 1.5 6 4.2 9.1a48.3 48.3 0 0 0 4.7 4.8 23 23 0 0 0 9.6 4.4 21 21 0 0 0 4.5.3 16.8 16.8 0 0 0 4.7-.4 18.5 18.5 0 0 0 11-7.3l.7-1-7-.2c-6.7 0-9.4-.2-12.4-.7a38 38 0 0 1-18.3-8.2l-1.7-1.4Z"/><path class="cls-1" d="M52.7 125.2a7.1 7.1 0 0 0 .5 2.8 18.1 18.1 0 0 0 4.4 6.7c3.4 3.6 6.3 5 10.3 5.3a12.6 12.6 0 0 0 10.4-4.2 18.4 18.4 0 0 0 2.8-4c-.2-.2-2.8-.4-7.7-.6l-6.4-.4a24.7 24.7 0 0 1-13.6-6.5l-.8-.7ZM50.6 140a35 35 0 0 0 1.3 4.7 43 43 0 0 0 8.5 13.7c1 1.2 1.2 1.2 1.2.1a14.6 14.6 0 0 1 .3-1.9c.4-2.2 1.1-3.7 3.6-7.4a34.3 34.3 0 0 0 3-5.5l.3-.4-1 .1a37.5 37.5 0 0 1-7 0 37.3 37.3 0 0 1-8.5-2.7l-1.7-.8v.1Z"/></g></g></svg>