<svg xmlns="http://www.w3.org/2000/svg" viewBox="0 0 84.3 120.2"><defs><style>.cls-1{fill:#ccc}</style></defs><g id="Layer_2" data-name="Layer 2"><g id="Layer_1-2" data-name="Layer 1"><path class="cls-1" d="M58.5 0a5.6 5.6 0 0 0 1 1.6 6.4 6.4 0 0 0 2.4 1.5A30.8 30.8 0 0 1 74 12.9a17 17 0 0 1 2.8 7 16.3 16.3 0 0 1 0 4.3c-.5 2.6-1.3 4.7-3.4 8.1l-.5.8v-.5a28.1 28.1 0 0 0-.3-3.4c-1.1-7-5.4-11.8-12.4-14.3A19.5 19.5 0 0 0 57 14a9 9 0 0 0 1.4 2.3 32.4 32.4 0 0 0 3.3 3.4 33.2 33.2 0 0 1 3.8 4.2 12.4 12.4 0 0 1 1.6 3.4 5.4 5.4 0 0 1 .3 2 6.2 6.2 0 0 1-.3 2 15.2 15.2 0 0 1-4 7c-1 1-1 1-1 .6a28.6 28.6 0 0 0 0-3.7c-.4-3.5-2.2-6.7-4.5-7.8A4.2 4.2 0 0 0 55 27c-.2.1-.2.2 1 1.8a12 12 0 0 1 2.3 4.3 6 6 0 0 1 .3 2 5.8 5.8 0 0 1-.2 1.9c-.9 3.2-4 6-8.3 7.5a23.4 23.4 0 0 1-8 1.3c-5.8 0-11-1.6-13.8-4.2a7.2 7.2 0 0 1-2.3-4.2 8.8 8.8 0 0 1 .2-3.1c.4-1.6 1.3-2.7 3.6-4.2a8.3 8.3 0 0 0 2.8-2.5c.3-.6.3-.6 0-.5l-1 .2a22 22 0 0 0-3.5 1.4c-3.5 1.7-5.3 4.1-5.6 7.2a11.1 11.1 0 0 0 .5 4.3 4.4 4.4 0 0 1 .2.7 13.1 13.1 0 0 1-2.2-1.3 12.6 12.6 0 0 1-4.2-5.8 5.5 5.5 0 0 1-.2-1.8 5 5 0 0 1 .2-1.9 13.7 13.7 0 0 1 3.5-5.4 58 58 0 0 1 4-3.6l2.5-2.2.5-.6-.3-.2a10 10 0 0 0-3.6 0A16.2 16.2 0 0 0 12 29.7a15.2 15.2 0 0 0-.5 3.8v1.3l-.5-.5a13.2 13.2 0 0 1-3.7-7.5 16 16 0 0 1 0-3.4 14.8 14.8 0 0 1 3.8-7.8 31.3 31.3 0 0 1 15.5-9.1c1.5-.5 1.4-.3 1.4-1.3l-.1-.9-4.5.7a37.4 37.4 0 0 0-17.7 9.1A17.5 17.5 0 0 0 1.8 19a13.8 13.8 0 0 0-.2 13.2c2 3.9 4.5 6.3 9.7 9 .4.2.4.2.7 1.2a22.5 22.5 0 0 0 6 9.3c2.8 2.7 8.4 6.3 14 9a51.3 51.3 0 0 0 25 6 36.6 36.6 0 0 0 7.4-1.2 33 33 0 0 0 5.8-1.6c4.8-2 7.4-5.4 8.6-11.2l.2-1.1a5.7 5.7 0 0 0-.7.6 36.8 36.8 0 0 1-31.7 8A59.1 59.1 0 0 1 26 51.8a36.7 36.7 0 0 1-7.6-5.9l-1.3-1.4a3 3 0 0 1-.4-.4s.3 0 .6.2A56.7 56.7 0 0 0 34 48.8a84.5 84.5 0 0 0 22-.6A48.3 48.3 0 0 0 76.5 39c4.5-3.5 7-7.7 7.8-12.7a21.5 21.5 0 0 0 0-4.7c-.7-5-3.3-9.3-8.1-13.3a35.6 35.6 0 0 0-10.5-6.3 39.2 39.2 0 0 0-7-1.9h-.2Z"/><path class="cls-1" d="M40.2 33.7a22.1 22.1 0 0 0-6.2 1.7 7 7 0 0 0-2 1.3 8.6 8.6 0 0 0 .6 2.1 7.4 7.4 0 0 0 6 4.3 26.4 26.4 0 0 0 6-.2 40.3 40.3 0 0 0 4.5-1.2 4 4 0 0 0 2.4-2.2c1-2 0-3.8-3-4.9a25.8 25.8 0 0 0-6.3-1h-2ZM80.6 36.3a46.8 46.8 0 0 1-7.3 7.5c-6.1 4.9-13 7.5-23 8.7-5.8.7-7.1.7-10.7 0-3.2-.7-4.2-.9-5.6-.8a6.2 6.2 0 0 0-3 .8c-1 .6-1 .6 0 .8 9 2.2 14 2.9 20.1 2.9a43 43 0 0 0 16.5-3 25 25 0 0 0 6-3.2 18 18 0 0 0 7.1-11.8 15.6 15.6 0 0 0 .4-2.5 3.8 3.8 0 0 0-.5.6ZM17 52.4l.5 1.2a35.8 35.8 0 0 0 9.4 13.6 43 43 0 0 0 27.4 9.4h10.4c5.4-.6 8.4-3.3 9.6-8.4a26.2 26.2 0 0 0 .5-3.2v-.5l-1 1a23.4 23.4 0 0 1-11.9 6.2 31.5 31.5 0 0 1-11-.1 61.5 61.5 0 0 1-20.4-8.7 33 33 0 0 1-6-4.9 28.7 28.7 0 0 0-6.8-5.3l-.6-.3H17ZM31.3 76.1a23.8 23.8 0 0 0 17 12 20 20 0 0 0 5.6-.2 13.6 13.6 0 0 0 8.4-6.3l.3-.5H62c-.8 0-3.1.2-5.8.6a40.3 40.3 0 0 1-7.9.3c-2.8-.4-4-.9-8-3.1a38.9 38.9 0 0 0-5.8-3.2 8.8 8.8 0 0 0-3-.7h-.9Z"/><path class="cls-1" d="M32.5 83.3A12.7 12.7 0 0 0 35 90a34.3 34.3 0 0 0 3 3.7 13.4 13.4 0 0 0 6 3.3 10.8 10.8 0 0 0 2.7.2 8.8 8.8 0 0 0 3-.3 11.7 11.7 0 0 0 6.8-5.5l.5-.8h-4.4A38 38 0 0 1 45 90 22 22 0 0 1 33.5 84l-1-1Z"/><path class="cls-1" d="M33 94.5a6.6 6.6 0 0 0 .2 2 14.2 14.2 0 0 0 2.8 5.2c2.1 2.6 4 3.8 6.4 3.9a7.3 7.3 0 0 0 6.5-3.2 13.8 13.8 0 0 0 1.8-3c-.1-.1-1.8-.3-4.8-.5-1.8 0-3.6-.2-4-.3a14.5 14.5 0 0 1-8.6-4.9l-.4-.5ZM31.6 105.6a30.7 30.7 0 0 0 .8 3.5 34.2 34.2 0 0 0 5.3 10.4c.7.9.7.9.7 0l.2-1.3c.3-1.7.8-2.8 2.3-5.6a27.4 27.4 0 0 0 2-4.2v-.3h-.5a19.6 19.6 0 0 1-4.3 0 20 20 0 0 1-5.3-2l-1-.5h-.2Z"/></g></g></svg>