<?xml version="1.0" encoding="utf-8"?>
<!-- Generator: Adobe Illustrator 25.4.1, SVG Export Plug-In . SVG Version: 6.00 Build 0)  -->
<svg version="1.1" id="Layer_1" xmlns="http://www.w3.org/2000/svg" xmlns:xlink="http://www.w3.org/1999/xlink" x="0px" y="0px"
	 viewBox="0 0 171.1 98.8" style="enable-background:new 0 0 171.1 98.8;" xml:space="preserve">
<style type="text/css">
	.st0{fill:#EFEFEF;}
	.st1{fill:#FFFFFF;}
	.st2{fill:#CCCBCA;}
	.st3{fill:#DBDBDB;}
</style>
<ellipse transform="matrix(0.9934 -0.1151 0.1151 0.9934 -5.0385 15.3234)" class="st0" cx="130.2" cy="51.3" rx="41.1" ry="30"/>
<ellipse transform="matrix(0.9909 -0.1343 0.1343 0.9909 -5.8819 17.3345)" class="st1" cx="125.5" cy="52.3" rx="38" ry="29"/>
<ellipse transform="matrix(0.9949 -0.1012 0.1012 0.9949 -2.1521 11.5775)" class="st0" cx="113" cy="27" rx="38.2" ry="26.8"/>
<ellipse transform="matrix(0.9964 -8.489522e-02 8.489522e-02 0.9964 -2.529 9.4057)" class="st1" cx="109.3" cy="34.4" rx="36.8" ry="31.5"/>
<ellipse transform="matrix(0.9932 -0.1162 0.1162 0.9932 -6.4963 12.6232)" class="st0" cx="105.1" cy="62.1" rx="35.8" ry="26.2"/>
<ellipse transform="matrix(0.9897 -0.1433 0.1433 0.9897 -8.1487 14.4154)" class="st1" cx="96" cy="63.8" rx="36.8" ry="28.5"/>
<ellipse transform="matrix(0.9957 -9.306575e-02 9.306575e-02 0.9957 -3.4129 7.1899)" class="st0" cx="75.4" cy="40.2" rx="35.3" ry="24.1"/>
<ellipse transform="matrix(0.9897 -0.1433 0.1433 0.9897 -5.6915 10.2468)" class="st1" cx="68.3" cy="44.6" rx="36.8" ry="28.5"/>
<ellipse transform="matrix(0.9898 -0.1426 0.1426 0.9898 -9.028 10.2061)" class="st2" cx="66.7" cy="68.1" rx="21.2" ry="18.7"/>
<ellipse transform="matrix(0.9835 -0.1807 0.1807 0.9835 -11.4382 12.4344)" class="st3" cx="62.5" cy="69" rx="21.6" ry="19.7"/>
<ellipse transform="matrix(0.9983 -5.895784e-02 5.895784e-02 0.9983 -3.2331 2.9378)" class="st2" cx="48.2" cy="56.3" rx="21" ry="15.8"/>
<ellipse transform="matrix(0.9828 -0.1848 0.1848 0.9828 -10.4025 9.5589)" class="st3" cx="46.1" cy="60.6" rx="21.7" ry="19.7"/>
<ellipse transform="matrix(0.9865 -0.1638 0.1638 0.9865 -12.3223 7.7819)" class="st2" cx="41" cy="78.6" rx="21.6" ry="19.5"/>
<ellipse transform="matrix(0.9828 -0.1848 0.1848 0.9828 -13.923 8.5487)" class="st3" cx="38.9" cy="79" rx="21.7" ry="19.7"/>
<ellipse transform="matrix(0.9961 -8.854648e-02 8.854648e-02 0.9961 -5.5909 2.3501)" class="st2" cx="23.7" cy="64.2" rx="21.4" ry="17.6"/>
<ellipse transform="matrix(0.9876 -0.1571 0.1571 0.9876 -10.1685 4.2262)" class="st3" cx="21.6" cy="66.4" rx="21.7" ry="19.4"/>
</svg>
