<svg id="Layer_1" data-name="Layer 1" xmlns="http://www.w3.org/2000/svg" viewBox="0 0 171.09 98.77"><defs><style>.cls-1{fill:#afafaf;}.cls-2{fill:#c1c1c1;}.cls-3{fill:#cccbca;}.cls-4{fill:#dbdbdb;}</style></defs><ellipse class="cls-1" cx="151.21" cy="70.3" rx="41.06" ry="30.01" transform="translate(-28.14 -1.14) rotate(-6.61)"/><ellipse class="cls-2" cx="146.57" cy="71.28" rx="38.03" ry="29.02" transform="translate(-29.3 1.31) rotate(-7.72)"/><ellipse class="cls-1" cx="134.05" cy="46.01" rx="38.24" ry="26.83" transform="translate(-25.02 -5.21) rotate(-5.81)"/><ellipse class="cls-2" cx="130.38" cy="53.46" rx="36.77" ry="31.46" transform="translate(-25.12 -7.76) rotate(-4.87)"/><ellipse class="cls-1" cx="126.12" cy="81.08" rx="35.79" ry="26.23" transform="translate(-29.62 -3.83) rotate(-6.67)"/><ellipse class="cls-2" cx="117.04" cy="82.8" rx="36.8" ry="28.54" transform="translate(-31.71 -1.4) rotate(-8.24)"/><ellipse class="cls-1" cx="96.44" cy="59.21" rx="35.34" ry="24.08" transform="translate(-26.15 -9.79) rotate(-5.34)"/><ellipse class="cls-2" cx="89.33" cy="63.66" rx="36.8" ry="28.54" transform="translate(-29.25 -5.57) rotate(-8.24)"/><ellipse class="cls-3" cx="87.73" cy="87.11" rx="21.15" ry="18.74" transform="translate(-32.58 -5.63) rotate(-8.2)"/><ellipse class="cls-4" cx="83.58" cy="88.03" rx="21.64" ry="19.66" transform="translate(-35.58 -2.48) rotate(-10.41)"/><ellipse class="cls-3" cx="69.22" cy="75.29" rx="21.02" ry="15.78" transform="translate(-25.37 -14.82) rotate(-3.38)"/><ellipse class="cls-4" cx="67.13" cy="79.61" rx="21.72" ry="19.73" transform="translate(-34.61 -5.25) rotate(-10.65)"/><ellipse class="cls-3" cx="62.07" cy="97.61" rx="21.64" ry="19.47" transform="translate(-36.21 -7.53) rotate(-9.43)"/><ellipse class="cls-4" cx="59.95" cy="97.99" rx="21.72" ry="19.73" transform="translate(-38.13 -6.26) rotate(-10.65)"/><ellipse class="cls-3" cx="44.74" cy="83.22" rx="21.39" ry="17.64" transform="translate(-28.24 -14.74) rotate(-5.08)"/><ellipse class="cls-4" cx="42.71" cy="85.45" rx="21.71" ry="19.4" transform="translate(-33.96 -11.25) rotate(-9.04)"/></svg>