<?xml version="1.0" encoding="utf-8"?>
<!-- Generator: Adobe Illustrator 25.4.1, SVG Export Plug-In . SVG Version: 6.00 Build 0)  -->
<svg version="1.1" id="Layer_1" xmlns="http://www.w3.org/2000/svg" xmlns:xlink="http://www.w3.org/1999/xlink" x="0px" y="0px"
	 viewBox="0 0 171.3 227.9" style="enable-background:new 0 0 171.3 227.9;" xml:space="preserve">
<style type="text/css">
	.st0{fill:#3C2514;}
	.st1{fill:#7D5932;}
	.st2{fill:#83AF71;}
	.st3{fill:#71995C;}
	.st4{fill:none;}
	.st5{fill:#D1E9F2;}
</style>
<g id="Layer_2_00000165918532023334239540000006397216973323139251_">
	<g id="Layer_1-2">
		<rect x="89.9" y="85.9" class="st0" width="4.2" height="142.1"/>
		<rect x="73" y="85.9" class="st1" width="16.9" height="142.1"/>
		<circle class="st2" cx="77.4" cy="57.3" r="55.9"/>
		<path class="st3" d="M77.5,1.4c-7.1,0-14.1,1.3-20.6,3.9c29.5,9,46.2,40.1,37.2,69.6c-4.9,16.3-17,29.4-32.8,35.7
			c29.5,9,60.7-7.7,69.7-37.1s-7.7-60.7-37.1-69.7C88.5,2.2,83,1.4,77.5,1.4z"/>
		<circle class="st2" cx="128.3" cy="92" r="41.5"/>
		
			<rect x="79.6" y="116.9" transform="matrix(0.5653 -0.8249 0.8249 0.5653 -51.6437 137.5316)" class="st0" width="50.2" height="1.7"/>
		
			<rect x="76.4" y="112.6" transform="matrix(0.5653 -0.8249 0.8249 0.5653 -51.2594 133.988)" class="st1" width="50.2" height="6"/>
		<circle class="st2" cx="39.4" cy="115.6" r="39"/>
		<path class="st3" d="M129.4,49.8c-5.2,0-10.4,1-15.3,3c22.1,6.9,34.5,30.5,27.5,52.6c-3.7,12-12.7,21.7-24.3,26.4
			c3.9,1.2,7.9,1.8,12,1.8c23.1-0.4,41.6-19.4,41.2-42.5C170.2,68.4,152,50.1,129.4,49.8L129.4,49.8z"/>
		<circle class="st2" cx="81.5" cy="91.6" r="21.5"/>
		<path class="st3" d="M39.3,77.1c-5,0-9.9,0.9-14.6,2.7c20.5,5.8,32.4,27.1,26.6,47.6c-3.3,11.8-12,21.3-23.5,25.6
			c3.7,1.1,7.6,1.7,11.5,1.7c21.8,0,39.5-17.4,39.5-38.8S61.1,77.1,39.3,77.1z"/>
		
			<rect x="59.7" y="121.6" transform="matrix(0.8342 -0.5515 0.5515 0.8342 -72.6954 59.4674)" class="st1" width="5.7" height="58"/>
		
			<rect x="64.8" y="119.6" transform="matrix(0.8342 -0.5515 0.5515 0.8342 -71.0808 60.8192)" class="st0" width="1.6" height="58"/>
		<rect x="73" y="150.6" class="st4" width="10.8" height="38.8"/>
	</g>
	<g id="Layer_4">
		<path class="st5" d="M38.8,53.8c7.9-2.5,13.9-8.6,22.2-10.2c8.2-1.6,15.6,0.4,22.9,3.9c1.5,0.7,3,1.5,4.5,2.2
			c9.9-1.2,19.9,1.4,29.8,2.4c5.2-0.8,10.2-2.1,15.1-4C128.8,17.3,100-4,69.2,0.7c-26.3,4-46.2,25.7-48,52.2
			C27.1,53.8,33,55.6,38.8,53.8z"/>
		<path class="st5" d="M130.2,47.7c-19.6,0-36.5,13.7-40.6,32.9c0.1,0.3,0.2,0.7,0.2,1c0.7,2.5,2.9,4,5.3,4.9
			c4.3,1.6,9.1,0,13.7-0.8c13.6-8.2,30.7-7.9,44,0.8c1.1,0.5,2.2,1,3.2,1.5c3.9,0.5,8.4,1.7,11.9,0.5c1.9-0.7,2.9-2.5,3.4-4.7
			C168.5,63.1,151,47.7,130.2,47.7z"/>
		<path class="st5" d="M8.2,110c5.6-3.7,10.9-7.9,17.2-10.3c7.8-2.9,16.1-2,23.6,1c6.7,2.7,13.1,6.3,18.8,10.6
			c2.7,0.6,5.4,1,8.1,1.2c0.9-0.1,1.8-0.3,2.7-0.6c-1.3-21.8-20.1-38.3-41.8-37C17.7,76,2.2,90.8,0,109.8
			C2.7,110.4,5.5,110.4,8.2,110z"/>
	</g>
</g>
</svg>
