<?xml version="1.0" encoding="utf-8"?>
<!-- Generator: Adobe Illustrator 25.4.1, SVG Export Plug-In . SVG Version: 6.00 Build 0)  -->
<svg version="1.1" id="Layer_1" xmlns="http://www.w3.org/2000/svg" xmlns:xlink="http://www.w3.org/1999/xlink" x="0px" y="0px"
	 viewBox="0 0 97.3 163.7" style="enable-background:new 0 0 97.3 163.7;" xml:space="preserve">
<style type="text/css">
	.st0{fill:#F7931E;}
	.st1{fill:#F15A24;}
</style>
<g>
	<g>
		<path class="st0" d="M11.8,34.3c-1.3,5.5-2.5,11-2.7,16.6C9,55.1,9,59.2,9,63.3c0,3.4-0.1,6.8,0.1,10.2c0.1,2.3,0.5,4.7,1.1,6.9
			c1.3,4.6,3.9,8.5,7.7,11.5c3.6,2.9,7.5,5.2,10.2,9.1c2.7,4,4,8.7,4.4,13.5c0-0.1,0-0.2,0-0.4c0,0.3,0,0.6,0.1,0.9
			c0.3,5.7-1.1,11.5,0-16.1c0,0.6-0.1,1.3-0.1,1.9c0-0.1,0-0.2,0-0.4c-1.1,14.5-9.5,27-12.5,41c-0.2,0.9-0.1,2.1-0.1,2.9
			c0,2.4,0,4.7,0,7.1c0,2.4,0,4.7,0,7.1c0,0.9,0.3,2.1,0.1,2.9c3-13.9,11.3-26.3,12.5-40.7c0.2-2.6,0.2-5.3,0.2-8
			c0-5.6,0.2-11.3-0.1-16.9c-0.1-2.9-0.6-5.9-1.5-8.7c-0.9-2.7-2.2-5.3-4-7.6c-2.1-2.6-4.9-4.5-7.6-6.5c-3-2.2-5.6-4.7-7.4-8
			c-1.8-3.3-2.7-7-3-10.8c0,0.1,0,0.2,0,0.4c0-0.3,0-0.5-0.1-0.8c0-0.1,0-0.3,0-0.4c-0.1-3.2-0.1-0.5,0,8.1C9.1,70.3,9.1,73,9.2,70
			c0-0.2,0-0.3,0-0.5c0-0.4,0-0.8,0.1-1.2c0,0.1,0,0.2,0,0.4c0.4-4.8,1.4-9.6,2.5-14.3c0.2-0.8,0.1-2.2,0.1-2.9c0-2.4,0-4.7,0-7.1
			c0-2.4,0-4.7,0-7.1C11.8,36.4,11.6,35.1,11.8,34.3L11.8,34.3z"/>
	</g>
</g>
<g>
	<g>
		<path class="st1" d="M46.3,2.5c-1.8,4.8-3.6,9.6-4.6,14.7c-0.5,2.5-0.7,5-0.7,7.5c-0.1,4.8-0.1,9.7,0,14.5c0,2.3,0,4.6,0.2,6.9
			c0.3,4.3,1.5,8.6,4.2,12.1c2.7,3.6,6.5,6.2,9.2,9.8c2.8,3.7,4.1,8.1,4.5,12.7c0-0.1,0-0.2,0-0.4c0.6,8.4,0.6-23.4,0-14.3
			c0-0.1,0-0.2,0-0.4c-1.3,16.6-13.2,29.2-18.6,44.3c-0.2,0.7-0.1,2.4-0.1,2.9c0,2.4,0,4.7,0,7.1c0,2.4,0,4.7,0,7.1c0,0.5,0,1,0,1.6
			c0,0.5,0,0.9,0.1,1.4c4.6-12.6,13.6-23.3,17.2-36.3c0.8-3,1.3-6.1,1.5-9.2c0.2-4.7,0.1-9.5,0.1-14.2c0-3.3,0.1-6.7-0.2-10
			c-0.5-6.1-3-11.2-7.3-15.5c-2.5-2.5-5.3-4.8-7.2-7.9c-1.9-3.1-2.9-6.8-3.2-10.4c0,0.1,0,0.2,0,0.4c0-0.3,0-0.5-0.1-0.8
			c-0.1-3.2-0.1-0.5,0,8c-0.1,8.5-0.1,11.2,0,8c0-0.3,0-0.5,0.1-0.8c0,0.1,0,0.2,0,0.4c0.6-6.6,2.8-12.8,5.1-18.9
			c0.2-0.7,0.1-2.4,0.1-2.9c0-2.4,0-4.7,0-7.1c0-2.4,0-4.7,0-7.1c0-0.5,0-1,0-1.6C46.3,3.4,46.3,3,46.3,2.5L46.3,2.5z"/>
	</g>
</g>
<g>
	<g>
		<path class="st0" d="M80.4,33.2c-4.4,7.4-8.9,15-9.4,23.8c-0.1,2.1-0.1,4.2-0.1,6.3c0,4.8-0.1,9.6,0,14.3c0,2.2,0.2,4.5,0.8,6.6
			c1.1,4.2,3.7,7.5,6.1,10.9c2.6,3.8,4.4,7.7,4.8,12.3c0-0.1,0-0.2,0-0.4c0,0.3,0,0.5,0.1,0.8c0.1,3.3,0.1,0.5,0-8.3
			c0.1-8.8,0.1-11.5,0-8.3c0,0.3,0,0.5-0.1,0.8c0-0.1,0-0.2,0-0.4c-1.6,18.9-18.3,30.5-27.2,45.9c-0.3,0.4-0.1,2.7-0.1,2.9
			c0,2.4,0,4.7,0,7.1c0,2.4,0,4.7,0,7.1c0,0.5,0,1,0,1.6c0,0.5,0,0.9,0.1,1.4c6.3-10.8,16-19.1,22.1-30c2.9-5.2,4.9-10.9,5.2-16.8
			c0.3-4.7,0.1-9.4,0.1-14.1c0-3.2,0.1-6.5-0.2-9.7c-0.3-2.9-1.1-5.8-2.5-8.3c-1.6-3-3.9-5.6-5.7-8.5c-1.9-3.1-3-6.4-3.3-10
			c0,0.1,0,0.2,0,0.4c0-0.1,0-0.3,0-0.4c-0.1-3.3-0.1-0.6,0,8.1c-0.1,8.6-0.1,11.4,0,8.4c0-0.2,0-0.4,0-0.6c0,0.1,0,0.2,0,0.4
			c0.7-8.6,5.1-16,9.4-23.3c0.3-0.4,0.1-2.8,0.1-2.9c0-2.4,0-4.7,0-7.1c0-2.4,0-4.7,0-7.1c0-0.5,0-1,0-1.6
			C80.4,34.1,80.4,33.6,80.4,33.2L80.4,33.2z"/>
	</g>
</g>
</svg>
