<svg id="winter" xmlns="http://www.w3.org/2000/svg" xmlns:xlink="http://www.w3.org/1999/xlink" viewBox="0 0 1361 809.37"><defs><style>.cls-1,.cls-12,.cls-17,.cls-2{fill:none;}.cls-2,.cls-8{stroke:#fff;}.cls-2{stroke-width:1.25px;}.cls-3{fill:#0fa7d7;}.cls-4{fill:#a4d9e9;stroke:url(#Waves_Color);}.cls-10,.cls-11,.cls-12,.cls-13,.cls-15,.cls-18,.cls-19,.cls-20,.cls-21,.cls-22,.cls-4,.cls-5,.cls-6,.cls-7,.cls-8,.cls-9{stroke-miterlimit:10;}.cls-5{fill:#9eadb5;stroke:#a6b370;}.cls-10,.cls-11,.cls-13,.cls-14,.cls-21,.cls-6{stroke:#000;}.cls-6{fill:url(#Black_Walnut);}.cls-7{fill:#ebeff2;stroke:#6ec7e2;}.cls-8{fill:#a68955;}.cls-9{fill:#bfc9d1;stroke:#e1464a;}.cls-10{fill:#cdd508;}.cls-11{fill:#010101;}.cls-12,.cls-15,.cls-16,.cls-17,.cls-19{stroke:#010101;}.cls-13,.cls-14,.cls-15,.cls-16,.cls-18{fill:#d0d0d0;}.cls-14,.cls-16,.cls-17{stroke-linecap:round;stroke-linejoin:round;}.cls-14,.cls-16{stroke-width:0;}.cls-17{stroke-width:2px;}.cls-18{stroke:#30441c;}.cls-19{fill:#fbfcf9;}.cls-20,.cls-22{fill:#6ec7e2;stroke:url(#Waves_Color-3);}.cls-21{fill:#fff;}.cls-22{stroke-width:3px;}.cls-23{font-size:24px;fill:#e83777;font-family:Algerian;}</style><pattern id="Waves_Color" data-name="Waves Color" width="50.74" height="58.5" patternTransform="translate(-89.73 -126.5)" patternUnits="userSpaceOnUse" viewBox="0 0 50.74 58.5"><rect class="cls-1" width="50.74" height="58.5"/><path class="cls-2" d="M111.8,22.92c-2,2.35-6,4.6-17.29-5.53-5-4.43-9.06-4.78-11.45-3.28a4,4,0,0,0-1.83,3.94c.55,1.71,2.11,2.29,3.33,1.45-1.12-.66-.65-2.24,1-1.92,2.44.47,2.21,3.72.85,5.34-2,2.35-6,4.6-17.29-5.53-5-4.43-9.06-4.78-11.45-3.28a4,4,0,0,0-1.82,3.94c.54,1.71,2.1,2.29,3.32,1.45-1.12-.66-.65-2.24,1-1.92,2.44.47,2.21,3.72.85,5.34-2,2.35-6,4.6-17.29-5.53"/><path class="cls-2" d="M103,36.89c-5-4.43-9.06-4.78-11.46-3.28a4,4,0,0,0-1.82,3.93c.55,1.72,2.11,2.3,3.33,1.46-1.13-.66-.65-2.25,1-1.92,2.44.46,2.21,3.72.85,5.34-2,2.34-6,4.59-17.29-5.53-5-4.43-9.06-4.78-11.46-3.28a4,4,0,0,0-1.82,3.93c.55,1.72,2.11,2.3,3.33,1.46-1.12-.66-.65-2.25,1-1.92,2.44.46,2.21,3.72.85,5.34-2,2.34-6,4.59-17.29-5.53-5-4.43-9.06-4.78-11.46-3.28"/><path class="cls-2" d="M111.43,56.39c-5-4.43-9.07-4.79-11.46-3.28A4,4,0,0,0,98.15,57c.55,1.72,2.11,2.3,3.33,1.46-1.13-.66-.65-2.25,1-1.92,2.44.46,2.21,3.71.85,5.34-2,2.34-6,4.59-17.29-5.53C81.1,52,77,51.6,74.6,53.11A4,4,0,0,0,72.78,57c.55,1.72,2.11,2.3,3.33,1.46-1.13-.66-.66-2.25,1-1.92,2.44.46,2.21,3.71.85,5.34-2,2.34-6,4.59-17.29-5.53-5-4.43-9.07-4.79-11.46-3.28A4,4,0,0,0,47.41,57c.55,1.72,2.11,2.3,3.33,1.46-1.13-.66-.65-2.25,1-1.92,2.44.46,2.21,3.71.84,5.34"/><rect class="cls-3" width="50.74" height="58.5"/><path class="cls-2" d="M61.06,22.92c-2,2.35-6,4.6-17.29-5.53-5-4.43-9.06-4.78-11.45-3.28a4,4,0,0,0-1.82,3.94c.54,1.71,2.11,2.29,3.33,1.45-1.13-.66-.66-2.24,1-1.92,2.44.47,2.21,3.72.84,5.34-2,2.35-6,4.6-17.29-5.53C13.45,13,9.34,12.61,7,14.11a4,4,0,0,0-1.82,3.94c.54,1.71,2.11,2.29,3.32,1.45-1.12-.66-.65-2.24,1-1.92,2.43.47,2.21,3.72.84,5.34-2,2.35-6,4.6-17.29-5.53"/><path class="cls-2" d="M52.23,36.89c-5-4.43-9.06-4.78-11.46-3.28A4,4,0,0,0,39,37.54c.55,1.72,2.11,2.3,3.33,1.46-1.12-.66-.65-2.25,1-1.92,2.43.46,2.2,3.72.84,5.34-2,2.34-6,4.59-17.29-5.53-5-4.43-9.06-4.78-11.45-3.28a4,4,0,0,0-1.83,3.93c.55,1.72,2.11,2.3,3.33,1.46-1.12-.66-.65-2.25,1-1.92,2.43.46,2.2,3.72.84,5.34-2,2.34-6,4.59-17.29-5.53-5-4.43-9.06-4.78-11.45-3.28"/><path class="cls-2" d="M60.69,56.39c-5-4.43-9.06-4.79-11.46-3.28A4,4,0,0,0,47.41,57c.55,1.72,2.11,2.3,3.33,1.46-1.12-.66-.65-2.25,1-1.92,2.44.46,2.21,3.71.85,5.34-2,2.34-6,4.59-17.29-5.53-5-4.43-9.06-4.79-11.46-3.28A4,4,0,0,0,22,57c.55,1.72,2.11,2.3,3.33,1.46-1.12-.66-.65-2.25,1-1.92,2.44.46,2.21,3.71.85,5.34-2,2.34-6,4.59-17.29-5.53C5,52,.89,51.6-1.51,53.11A4,4,0,0,0-3.33,57c.55,1.72,2.11,2.3,3.33,1.46-1.12-.66-.65-2.25,1-1.92,2.44.46,2.21,3.71.85,5.34"/><path class="cls-2" d="M10.32,22.92c-2,2.35-6,4.6-17.29-5.53C-11.92,13-16,12.61-18.42,14.11a4,4,0,0,0-1.82,3.94c.55,1.71,2.11,2.29,3.33,1.45-1.13-.66-.66-2.24,1-1.92,2.44.47,2.21,3.72.84,5.34-2,2.35-6,4.6-17.28-5.53-5-4.43-9.07-4.78-11.46-3.28a4,4,0,0,0-1.82,3.94c.55,1.71,2.11,2.29,3.33,1.45-1.13-.66-.66-2.24,1-1.92,2.44.47,2.21,3.72.84,5.34-2,2.35-6,4.6-17.28-5.53"/><path class="cls-2" d="M1.49,36.89c-5-4.43-9.06-4.78-11.45-3.28a4,4,0,0,0-1.82,3.93c.54,1.72,2.11,2.3,3.32,1.46-1.12-.66-.65-2.25,1-1.92,2.44.46,2.2,3.72.84,5.34-2,2.34-6,4.59-17.29-5.53-4.95-4.43-9.06-4.78-11.45-3.28a4,4,0,0,0-1.82,3.93c.54,1.72,2.11,2.3,3.33,1.46-1.13-.66-.66-2.25,1-1.92,2.44.46,2.21,3.72.84,5.34-2,2.34-6,4.59-17.29-5.53-5-4.43-9.06-4.78-11.45-3.28"/><path class="cls-2" d="M10,56.39C5,52,.89,51.6-1.5,53.11A4,4,0,0,0-3.32,57c.54,1.72,2.1,2.3,3.32,1.46-1.12-.66-.65-2.25,1-1.92,2.44.46,2.21,3.71.85,5.34-2,2.34-6,4.59-17.29-5.53-5-4.43-9.06-4.79-11.45-3.28A4,4,0,0,0-28.69,57c.54,1.72,2.11,2.3,3.32,1.46-1.12-.66-.65-2.25,1-1.92,2.43.46,2.2,3.71.84,5.34-2,2.34-6,4.59-17.29-5.53-5-4.43-9.06-4.79-11.45-3.28A4,4,0,0,0-54.06,57c.54,1.72,2.1,2.3,3.32,1.46-1.12-.66-.65-2.25,1-1.92,2.43.46,2.2,3.71.84,5.34"/><path class="cls-2" d="M111.43-2.11c-5-4.43-9.07-4.78-11.46-3.28a4,4,0,0,0-1.82,3.94C98.7.26,100.26.84,101.48,0c-1.13-.66-.65-2.24,1-1.92,2.44.47,2.21,3.72.85,5.34-2,2.35-6,4.6-17.29-5.53C81.1-6.54,77-6.89,74.6-5.39a4,4,0,0,0-1.82,3.94C73.33.26,74.89.84,76.11,0c-1.13-.66-.66-2.24,1-1.92,2.44.47,2.21,3.72.85,5.34C76,5.77,72,8,60.69-2.11c-5-4.43-9.07-4.78-11.46-3.28a4,4,0,0,0-1.82,3.94C48,.26,49.52.84,50.74,0c-1.13-.66-.65-2.24,1-1.92,2.44.47,2.21,3.72.84,5.34"/><path class="cls-2" d="M60.69-2.11c-5-4.43-9.06-4.78-11.46-3.28a4,4,0,0,0-1.82,3.94C48,.26,49.52.84,50.74,0c-1.12-.66-.65-2.24,1-1.92,2.44.47,2.21,3.72.85,5.34-2,2.35-6,4.6-17.29-5.53-5-4.43-9.06-4.78-11.46-3.28A4,4,0,0,0,22-1.45C22.59.26,24.15.84,25.37,0c-1.12-.66-.65-2.24,1-1.92,2.44.47,2.21,3.72.85,5.34-2,2.35-6,4.6-17.29-5.53C5-6.54.89-6.89-1.51-5.39A4,4,0,0,0-3.33-1.45C-2.78.26-1.22.84,0,0-1.12-.66-.65-2.24,1-1.92c2.44.47,2.21,3.72.85,5.34"/><path class="cls-2" d="M10-2.11C5-6.54.89-6.89-1.5-5.39A4,4,0,0,0-3.32-1.45C-2.78.26-1.22.84,0,0-1.12-.66-.65-2.24,1-1.92c2.44.47,2.21,3.72.85,5.34-2,2.35-6,4.6-17.29-5.53-5-4.43-9.06-4.78-11.45-3.28a4,4,0,0,0-1.82,3.94C-28.15.26-26.58.84-25.37,0c-1.12-.66-.65-2.24,1-1.92,2.43.47,2.2,3.72.84,5.34-2,2.35-6,4.6-17.29-5.53-5-4.43-9.06-4.78-11.45-3.28a4,4,0,0,0-1.82,3.94C-53.52.26-52,.84-50.74,0c-1.12-.66-.65-2.24,1-1.92,2.43.47,2.2,3.72.84,5.34"/></pattern><linearGradient id="Black_Walnut" x1="504.18" y1="339.19" x2="560.62" y2="339.19" gradientUnits="userSpaceOnUse"><stop offset="0" stop-color="#6b3811"/><stop offset="0.11" stop-color="#864d19"/><stop offset="0.25" stop-color="#4d2d1a"/><stop offset="0.39" stop-color="#935e1f"/><stop offset="0.57" stop-color="#592a0f"/><stop offset="0.68" stop-color="#5a2c0f"/><stop offset="0.78" stop-color="#52301d"/><stop offset="0.88" stop-color="#824316"/><stop offset="1" stop-color="#4d2d1a"/></linearGradient><pattern id="Waves_Color-3" data-name="Waves Color" width="50.74" height="58.5" patternTransform="translate(135.1 56.58)" patternUnits="userSpaceOnUse" viewBox="0 0 50.74 58.5"><rect class="cls-1" width="50.74" height="58.5"/><path class="cls-2" d="M111.8,22.92c-2,2.35-6,4.6-17.29-5.53-5-4.43-9.06-4.78-11.45-3.28a4,4,0,0,0-1.83,3.94c.55,1.71,2.11,2.29,3.33,1.45-1.12-.66-.65-2.24,1-1.92,2.44.47,2.21,3.72.85,5.34-2,2.35-6,4.6-17.29-5.53-5-4.43-9.06-4.78-11.45-3.28a4,4,0,0,0-1.82,3.94c.54,1.71,2.1,2.29,3.32,1.45-1.12-.66-.65-2.24,1-1.92,2.44.47,2.21,3.72.85,5.34-2,2.35-6,4.6-17.29-5.53"/><path class="cls-2" d="M103,36.89c-5-4.43-9.06-4.78-11.46-3.28a4,4,0,0,0-1.82,3.93c.55,1.72,2.11,2.3,3.33,1.46-1.13-.66-.65-2.25,1-1.92,2.44.46,2.21,3.72.85,5.34-2,2.34-6,4.59-17.29-5.53-5-4.43-9.06-4.78-11.46-3.28a4,4,0,0,0-1.82,3.93c.55,1.72,2.11,2.3,3.33,1.46-1.12-.66-.65-2.25,1-1.92,2.44.46,2.21,3.72.85,5.34-2,2.34-6,4.59-17.29-5.53-5-4.43-9.06-4.78-11.46-3.28"/><path class="cls-2" d="M111.43,56.39c-5-4.43-9.07-4.79-11.46-3.28A4,4,0,0,0,98.15,57c.55,1.72,2.11,2.3,3.33,1.46-1.13-.66-.65-2.25,1-1.92,2.44.46,2.21,3.71.85,5.34-2,2.34-6,4.59-17.29-5.53C81.1,52,77,51.6,74.6,53.11A4,4,0,0,0,72.78,57c.55,1.72,2.11,2.3,3.33,1.46-1.13-.66-.66-2.25,1-1.92,2.44.46,2.21,3.71.85,5.34-2,2.34-6,4.59-17.29-5.53-5-4.43-9.07-4.79-11.46-3.28A4,4,0,0,0,47.41,57c.55,1.72,2.11,2.3,3.33,1.46-1.13-.66-.65-2.25,1-1.92,2.44.46,2.21,3.71.84,5.34"/><rect class="cls-3" width="50.74" height="58.5"/><path class="cls-2" d="M61.06,22.92c-2,2.35-6,4.6-17.29-5.53-5-4.43-9.06-4.78-11.45-3.28a4,4,0,0,0-1.82,3.94c.54,1.71,2.11,2.29,3.33,1.45-1.13-.66-.66-2.24,1-1.92,2.44.47,2.21,3.72.84,5.34-2,2.35-6,4.6-17.29-5.53C13.45,13,9.34,12.61,7,14.11a4,4,0,0,0-1.82,3.94c.54,1.71,2.11,2.29,3.32,1.45-1.12-.66-.65-2.24,1-1.92,2.43.47,2.21,3.72.84,5.34-2,2.35-6,4.6-17.29-5.53"/><path class="cls-2" d="M52.23,36.89c-5-4.43-9.06-4.78-11.46-3.28A4,4,0,0,0,39,37.54c.55,1.72,2.11,2.3,3.33,1.46-1.12-.66-.65-2.25,1-1.92,2.43.46,2.2,3.72.84,5.34-2,2.34-6,4.59-17.29-5.53-5-4.43-9.06-4.78-11.45-3.28a4,4,0,0,0-1.83,3.93c.55,1.72,2.11,2.3,3.33,1.46-1.12-.66-.65-2.25,1-1.92,2.43.46,2.2,3.72.84,5.34-2,2.34-6,4.59-17.29-5.53-5-4.43-9.06-4.78-11.45-3.28"/><path class="cls-2" d="M60.69,56.39c-5-4.43-9.06-4.79-11.46-3.28A4,4,0,0,0,47.41,57c.55,1.72,2.11,2.3,3.33,1.46-1.12-.66-.65-2.25,1-1.92,2.44.46,2.21,3.71.85,5.34-2,2.34-6,4.59-17.29-5.53-5-4.43-9.06-4.79-11.46-3.28A4,4,0,0,0,22,57c.55,1.72,2.11,2.3,3.33,1.46-1.12-.66-.65-2.25,1-1.92,2.44.46,2.21,3.71.85,5.34-2,2.34-6,4.59-17.29-5.53C5,52,.89,51.6-1.51,53.11A4,4,0,0,0-3.33,57c.55,1.72,2.11,2.3,3.33,1.46-1.12-.66-.65-2.25,1-1.92,2.44.46,2.21,3.71.85,5.34"/><path class="cls-2" d="M10.32,22.92c-2,2.35-6,4.6-17.29-5.53C-11.92,13-16,12.61-18.42,14.11a4,4,0,0,0-1.82,3.94c.55,1.71,2.11,2.29,3.33,1.45-1.13-.66-.66-2.24,1-1.92,2.44.47,2.21,3.72.84,5.34-2,2.35-6,4.6-17.28-5.53-5-4.43-9.07-4.78-11.46-3.28a4,4,0,0,0-1.82,3.94c.55,1.71,2.11,2.29,3.33,1.45-1.13-.66-.66-2.24,1-1.92,2.44.47,2.21,3.72.84,5.34-2,2.35-6,4.6-17.28-5.53"/><path class="cls-2" d="M1.49,36.89c-5-4.43-9.06-4.78-11.45-3.28a4,4,0,0,0-1.82,3.93c.54,1.72,2.11,2.3,3.32,1.46-1.12-.66-.65-2.25,1-1.92,2.44.46,2.2,3.72.84,5.34-2,2.34-6,4.59-17.29-5.53-4.95-4.43-9.06-4.78-11.45-3.28a4,4,0,0,0-1.82,3.93c.54,1.72,2.11,2.3,3.33,1.46-1.13-.66-.66-2.25,1-1.92,2.44.46,2.21,3.72.84,5.34-2,2.34-6,4.59-17.29-5.53-5-4.43-9.06-4.78-11.45-3.28"/><path class="cls-2" d="M10,56.39C5,52,.89,51.6-1.5,53.11A4,4,0,0,0-3.32,57c.54,1.72,2.1,2.3,3.32,1.46-1.12-.66-.65-2.25,1-1.92,2.44.46,2.21,3.71.85,5.34-2,2.34-6,4.59-17.29-5.53-5-4.43-9.06-4.79-11.45-3.28A4,4,0,0,0-28.69,57c.54,1.72,2.11,2.3,3.32,1.46-1.12-.66-.65-2.25,1-1.92,2.43.46,2.2,3.71.84,5.34-2,2.34-6,4.59-17.29-5.53-5-4.43-9.06-4.79-11.45-3.28A4,4,0,0,0-54.06,57c.54,1.72,2.1,2.3,3.32,1.46-1.12-.66-.65-2.25,1-1.92,2.43.46,2.2,3.71.84,5.34"/><path class="cls-2" d="M111.43-2.11c-5-4.43-9.07-4.78-11.46-3.28a4,4,0,0,0-1.82,3.94C98.7.26,100.26.84,101.48,0c-1.13-.66-.65-2.24,1-1.92,2.44.47,2.21,3.72.85,5.34-2,2.35-6,4.6-17.29-5.53C81.1-6.54,77-6.89,74.6-5.39a4,4,0,0,0-1.82,3.94C73.33.26,74.89.84,76.11,0c-1.13-.66-.66-2.24,1-1.92,2.44.47,2.21,3.72.85,5.34C76,5.77,72,8,60.69-2.11c-5-4.43-9.07-4.78-11.46-3.28a4,4,0,0,0-1.82,3.94C48,.26,49.52.84,50.74,0c-1.13-.66-.65-2.24,1-1.92,2.44.47,2.21,3.72.84,5.34"/><path class="cls-2" d="M60.69-2.11c-5-4.43-9.06-4.78-11.46-3.28a4,4,0,0,0-1.82,3.94C48,.26,49.52.84,50.74,0c-1.12-.66-.65-2.24,1-1.92,2.44.47,2.21,3.72.85,5.34-2,2.35-6,4.6-17.29-5.53-5-4.43-9.06-4.78-11.46-3.28A4,4,0,0,0,22-1.45C22.59.26,24.15.84,25.37,0c-1.12-.66-.65-2.24,1-1.92,2.44.47,2.21,3.72.85,5.34-2,2.35-6,4.6-17.29-5.53C5-6.54.89-6.89-1.51-5.39A4,4,0,0,0-3.33-1.45C-2.78.26-1.22.84,0,0-1.12-.66-.65-2.24,1-1.92c2.44.47,2.21,3.72.85,5.34"/><path class="cls-2" d="M10-2.11C5-6.54.89-6.89-1.5-5.39A4,4,0,0,0-3.32-1.45C-2.78.26-1.22.84,0,0-1.12-.66-.65-2.24,1-1.92c2.44.47,2.21,3.72.85,5.34-2,2.35-6,4.6-17.29-5.53-5-4.43-9.06-4.78-11.45-3.28a4,4,0,0,0-1.82,3.94C-28.15.26-26.58.84-25.37,0c-1.12-.66-.65-2.24,1-1.92,2.43.47,2.2,3.72.84,5.34-2,2.35-6,4.6-17.29-5.53-5-4.43-9.06-4.78-11.45-3.28a4,4,0,0,0-1.82,3.94C-53.52.26-52,.84-50.74,0c-1.12-.66-.65-2.24,1-1.92,2.43.47,2.2,3.72.84,5.34"/></pattern></defs><rect class="cls-4" x="0.5" y="0.5" width="1360" height="403.85"/><rect class="cls-5" x="0.5" y="405.02" width="1360" height="403.85"/><polygon class="cls-6" points="560.62 300.88 504.18 300.88 504.18 330.55 514.31 330.55 514.31 377.5 546.15 377.5 546.15 330.55 560.62 330.55 560.62 300.88"/><path class="cls-7" d="M632.64,540.64,788,396.47,935.61,520.58l-10.49,7.23-135-119L640,544.45l-7.38-3.81-.22.2" transform="translate(-329.02 -100.74)"/><path class="cls-8" d="M646.78,548.35c-12.3-9.08-5.71-3.93-5.71-4.53L791.22,408.14l135,119-4.94,5.58L791.59,420.44Z" transform="translate(-329.02 -100.74)"/><path class="cls-9" d="M645.92,546.32c-.09-.69-.41-.47-.41-.47h0L790.32,417.93,920,530.25l-15.32,12.51L788.87,441.45S666.35,564.21,657.89,558C652.14,553.69,645.92,546.32,645.92,546.32Z" transform="translate(-329.02 -100.74)"/><path class="cls-10" d="M888.55,645H689.19L686.61,542,790.14,444,889.64,531Z" transform="translate(-329.02 -100.74)"/><circle class="cls-11" cx="460.94" cy="409.43" r="15.83"/><path class="cls-11" d="M639.31,594.84" transform="translate(-329.02 -100.74)"/><path class="cls-12" d="M639.31,555" transform="translate(-329.02 -100.74)"/><path class="cls-13" d="M637.71,564.62" transform="translate(-329.02 -100.74)"/><path class="cls-13" d="M635.54,615.39" transform="translate(-329.02 -100.74)"/><path class="cls-14" d="M652.55,643.22l-18-34.1,15.3.78-2.88-5.75-1.5-3.37-11-26.3h17.11l-26.45-42.33h-8.68l-30.76,42.33H610.5c-1.09.51-1.85,1.49-3.7,4.7-15.74,27.32-16.48,27.68-16.48,27.68l17.38.89c-.62,1-3.84,5.84-20.15,29l-2.84,5.61,26.34.35v-.17h9.68v.11l-8.21-.11v15h9.68v-14.7Z" transform="translate(-329.02 -100.74)"/><path class="cls-15" d="M954.69,556.29" transform="translate(-329.02 -100.74)"/><path class="cls-15" d="M952.52,607.05" transform="translate(-329.02 -100.74)"/><path class="cls-16" d="M969.53,634.89l-18-34.1,15.31.78-2.88-5.76-1.5-3.36-11-26.3h17.11L942.1,523.81h-8.68l-30.76,42.34h24.82c-1.09.51-1.85,1.48-3.7,4.7C908,598.17,907.3,598.53,907.3,598.53l17.38.89c-.62,1-3.84,5.84-20.15,29L901.69,634l26.34.35v-.17h9.68v.11l-8.21-.11v15h9.68v-14.7Z" transform="translate(-329.02 -100.74)"/><path class="cls-17" d="M1094.42,726.53" transform="translate(-329.02 -100.74)"/><path class="cls-18" d="M1458.57,573.22h35.59c-2.12-6.4-36.21-83.57-49.25-113l42.73.65-66.9-88.12h36L1366.3,253.89c-87.37,102.2-96.46,118.82-96.46,118.82h43.49c-3.06,8.67-13,31-45.53,84.76l-1,0h1l-.83,1.38,44.33,7.75L1251,573.22h49.52c-5.87,10.68-21.23,38.68-61.51,112.07,0,0,57.35-1.21,119.93-2.66l17.25,119.88v-7.23l31.84,7.23-7.22-120.74h-5.47c62.49-1.5,120.23-3.06,121.54-3.72C1519.37,676.82,1472.56,597,1458.57,573.22Z" transform="translate(-329.02 -100.74)"/><path class="cls-19" d="M919.13,307.42a23.67,23.67,0,0,0-14.22,4.87,21.1,21.1,0,0,0-13.19-4.87c-7.09,0-13.53,3.86-18.3,10.13a32.39,32.39,0,1,0,6.7,60,20.65,20.65,0,0,0,11.6,3.69c6.6,0,12.64-3.35,17.3-8.89a22.84,22.84,0,0,0,10.11,2.37c15.13,0,27.41-15.06,27.41-33.65S934.26,307.42,919.13,307.42Z" transform="translate(-329.02 -100.74)"/><path class="cls-19" d="M1022,233a23.67,23.67,0,0,0-14.22,4.87A21.1,21.1,0,0,0,994.59,233c-7.09,0-13.53,3.86-18.3,10.13a32.39,32.39,0,1,0,6.7,60,20.63,20.63,0,0,0,11.6,3.69c6.6,0,12.64-3.36,17.29-8.89a23.05,23.05,0,0,0,10.12,2.37c15.13,0,27.41-15.06,27.41-33.65S1037.13,233,1022,233Z" transform="translate(-329.02 -100.74)"/><path class="cls-19" d="M1203.47,201.54a23.61,23.61,0,0,0-14.21,4.87,21.13,21.13,0,0,0-13.2-4.87c-7.09,0-13.53,3.86-18.3,10.13a32.38,32.38,0,1,0,6.7,60,20.64,20.64,0,0,0,11.6,3.68c6.61,0,12.65-3.35,17.3-8.88a23,23,0,0,0,10.11,2.37c15.14,0,27.41-15.06,27.41-33.65S1218.61,201.54,1203.47,201.54Z" transform="translate(-329.02 -100.74)"/><path class="cls-20" d="M1264.08,649.89" transform="translate(-329.02 -100.74)"/><rect class="cls-21" x="439.41" y="459.95" width="40.88" height="81.9" rx="10.74"/><path class="cls-22" d="M1563.68,735.28l-114.36,66.57h-123a227.26,227.26,0,0,1-81.08-19.4l-193.15-86.38L927.62,650.26l-254-.37S558,664.16,564,688.25l6.48,25.87c23.67-7.49,109.6-38.35,109.6-38.35l254,.36L1058.56,722l193.15,86.38a227.26,227.26,0,0,0,81.08,19.4h123l114.36-66.57Z" transform="translate(-329.02 -100.74)"/><text class="cls-23" transform="translate(27.84 46.79)">The winter are getting shorter, and there’s less snow thorughout the season.<tspan x="32.21" y="34.8">The permafrost can melt, and this has fatal concequences for the globe</tspan></text></svg>